<?xml version="1.0" encoding="UTF-8" standalone="no"?>
<svg
   xmlns:dc="http://purl.org/dc/elements/1.1/"
   xmlns:cc="http://creativecommons.org/ns#"
   xmlns:rdf="http://www.w3.org/1999/02/22-rdf-syntax-ns#"
   xmlns:svg="http://www.w3.org/2000/svg"
   xmlns="http://www.w3.org/2000/svg"
   id="svg132"
   version="1.2"
   viewBox="0 0 419.585449 119.688248"
   height="119.688248pt"
   width="419.585449pt">
  <metadata
     id="metadata136">
    <rdf:RDF>
      <cc:Work
         rdf:about="">
        <dc:format>image/svg+xml</dc:format>
        <dc:type
           rdf:resource="http://purl.org/dc/dcmitype/StillImage" />
        <dc:title></dc:title>
      </cc:Work>
    </rdf:RDF>
  </metadata>
  <defs
     id="defs5">
    <clipPath
       id="clip1">
      <path
         id="path2"
         d="M 168 9 L 368 9 L 368 119.6875 L 168 119.6875 Z M 168 9 " />
    </clipPath>
  </defs>
  <g
     id="surface558">
    <path
       id="path7"
       d="M 10.359375 10.78125 L 9.859375 10.78125 C 9.828125 11.03125 9.75 11.734375 9.5625 11.84375 C 9.46875 11.9375 8.53125 11.9375 8.359375 11.9375 L 6.5 11.9375 C 6.953125 11.546875 8.046875 10.640625 8.21875 10.515625 C 9.546875 9.515625 10.359375 8.90625 10.359375 7.765625 C 10.359375 6.34375 9.078125 5.5 7.5 5.5 C 6.15625 5.5 5 6.265625 5 7.40625 C 5 8.03125 5.515625 8.21875 5.78125 8.21875 C 6.15625 8.21875 6.59375 7.96875 6.59375 7.421875 C 6.59375 6.90625 6.21875 6.65625 5.84375 6.609375 C 6.328125 6.0625 6.953125 6.015625 7.203125 6.015625 C 8.3125 6.015625 8.828125 6.90625 8.828125 7.78125 C 8.828125 8.703125 8.203125 9.5625 7.703125 10.078125 L 5.109375 12.796875 C 5 12.90625 5 12.921875 5 13.140625 L 5 13.34375 L 10.015625 13.34375 Z M 10.359375 10.78125 "
       style=" stroke:none;fill-rule:nonzero;fill:rgb(0%,0%,0%);fill-opacity:1;" />
    <path
       id="path9"
       d="M 13.773438 12.484375 C 13.773438 12 13.382812 11.625 12.914062 11.625 C 12.460938 11.625 12.054688 12 12.054688 12.484375 C 12.054688 12.96875 12.460938 13.34375 12.914062 13.34375 C 13.382812 13.34375 13.773438 12.96875 13.773438 12.484375 Z M 13.773438 12.484375 "
       style=" stroke:none;fill-rule:nonzero;fill:rgb(0%,0%,0%);fill-opacity:1;" />
    <path
       id="path11"
       d="M 18.929688 5.84375 C 18.929688 5.5 18.898438 5.5 18.523438 5.5 C 17.632812 6.265625 16.304688 6.265625 16.039062 6.265625 L 15.820312 6.265625 L 15.820312 6.78125 L 16.039062 6.78125 C 16.460938 6.78125 17.101562 6.703125 17.570312 6.546875 L 17.570312 12.828125 L 15.914062 12.828125 L 15.914062 13.34375 C 16.414062 13.3125 17.664062 13.3125 18.226562 13.3125 C 18.789062 13.3125 20.054688 13.3125 20.554688 13.34375 L 20.554688 12.828125 L 18.929688 12.828125 Z M 18.929688 5.84375 "
       style=" stroke:none;fill-rule:nonzero;fill:rgb(0%,0%,0%);fill-opacity:1;" />
    <path
       id="path13"
       d="M 43.574219 5.25 L 35.699219 5.25 L 35.449219 8.078125 L 35.949219 8.078125 C 36.058594 6.78125 36.152344 5.765625 37.886719 5.765625 L 38.855469 5.765625 L 38.855469 12.828125 L 37.042969 12.828125 L 37.042969 13.34375 C 37.996094 13.3125 39.230469 13.3125 39.636719 13.3125 C 40.371094 13.3125 41.277344 13.3125 42.230469 13.34375 L 42.230469 12.828125 L 40.433594 12.828125 L 40.433594 5.765625 L 41.386719 5.765625 C 43.105469 5.765625 43.199219 6.765625 43.308594 8.078125 L 43.808594 8.078125 Z M 43.574219 5.25 "
       style=" stroke:none;fill-rule:nonzero;fill:rgb(0%,0%,0%);fill-opacity:1;" />
    <path
       id="path15"
       d="M 45.675781 10.65625 C 45.675781 10.265625 45.753906 8.359375 47.160156 8.359375 C 46.988281 8.484375 46.910156 8.6875 46.910156 8.90625 C 46.910156 9.40625 47.300781 9.609375 47.597656 9.609375 C 47.894531 9.609375 48.300781 9.40625 48.300781 8.90625 C 48.300781 8.296875 47.675781 7.96875 47.097656 7.96875 C 46.160156 7.96875 45.753906 8.796875 45.582031 9.296875 L 45.566406 9.296875 L 45.566406 7.96875 L 43.613281 8.0625 L 43.613281 8.578125 C 44.347656 8.578125 44.441406 8.578125 44.441406 9.046875 L 44.441406 12.828125 L 43.613281 12.828125 L 43.613281 13.34375 C 43.878906 13.3125 44.785156 13.3125 45.113281 13.3125 C 45.457031 13.3125 46.425781 13.3125 46.722656 13.34375 L 46.722656 12.828125 L 45.675781 12.828125 Z M 45.675781 10.65625 "
       style=" stroke:none;fill-rule:nonzero;fill:rgb(0%,0%,0%);fill-opacity:1;" />
    <path
       id="path17"
       d="M 54.1875 9.765625 C 54.1875 8.671875 53.3125 7.921875 51.625 7.921875 C 50.953125 7.921875 49.546875 7.984375 49.546875 9 C 49.546875 9.5 49.9375 9.703125 50.25 9.703125 C 50.609375 9.703125 50.953125 9.453125 50.953125 9 C 50.953125 8.78125 50.875 8.5625 50.671875 8.4375 C 51.0625 8.328125 51.359375 8.328125 51.578125 8.328125 C 52.390625 8.328125 52.890625 8.78125 52.890625 9.765625 L 52.890625 10.234375 C 51 10.234375 49.09375 10.765625 49.09375 12.09375 C 49.09375 13.171875 50.484375 13.421875 51.3125 13.421875 C 52.21875 13.421875 52.8125 12.90625 53.046875 12.390625 C 53.046875 12.828125 53.046875 13.34375 54.25 13.34375 L 54.875 13.34375 C 55.125 13.34375 55.21875 13.34375 55.21875 13.078125 C 55.21875 12.828125 55.109375 12.828125 54.9375 12.828125 C 54.1875 12.8125 54.1875 12.625 54.1875 12.359375 Z M 52.890625 11.6875 C 52.890625 12.8125 51.875 13.015625 51.5 13.015625 C 50.90625 13.015625 50.421875 12.625 50.421875 12.078125 C 50.421875 10.984375 51.71875 10.625 52.890625 10.5625 Z M 52.890625 11.6875 "
       style=" stroke:none;fill-rule:nonzero;fill:rgb(0%,0%,0%);fill-opacity:1;" />
    <path
       id="path19"
       d="M 59.054688 5.890625 C 59.054688 5.421875 58.679688 5.03125 58.195312 5.03125 C 57.726562 5.03125 57.335938 5.421875 57.335938 5.890625 C 57.335938 6.375 57.726562 6.75 58.195312 6.75 C 58.679688 6.75 59.054688 6.375 59.054688 5.890625 Z M 56.914062 8.0625 L 56.914062 8.578125 C 57.117188 8.578125 57.382812 8.578125 57.554688 8.59375 C 57.820312 8.640625 57.820312 8.796875 57.820312 9.046875 L 57.820312 13.875 C 57.820312 14.421875 57.679688 15.34375 56.945312 15.34375 C 56.710938 15.34375 56.554688 15.296875 56.460938 15.265625 C 56.507812 15.234375 56.757812 15.046875 56.757812 14.6875 C 56.757812 14.25 56.445312 13.984375 56.054688 13.984375 C 55.648438 13.984375 55.335938 14.265625 55.335938 14.6875 C 55.335938 15.375 56.085938 15.734375 56.945312 15.734375 C 57.945312 15.734375 59.054688 15.109375 59.054688 13.875 L 59.054688 7.96875 Z M 56.914062 8.0625 "
       style=" stroke:none;fill-rule:nonzero;fill:rgb(0%,0%,0%);fill-opacity:1;" />
    <path
       id="path21"
       d="M 63.117188 8.078125 C 61.945312 7.828125 61.898438 6.953125 61.898438 6.796875 C 61.898438 6.1875 62.304688 5.484375 63.460938 5.484375 C 64.617188 5.484375 65.648438 6.046875 65.914062 7.609375 C 65.945312 7.859375 65.945312 7.875 66.164062 7.875 C 66.414062 7.875 66.414062 7.828125 66.414062 7.5625 L 66.414062 5.3125 C 66.414062 5.078125 66.414062 5 66.242188 5 C 66.164062 5 66.117188 5.015625 66.007812 5.125 L 65.507812 5.71875 C 65.195312 5.46875 64.601562 5 63.445312 5 C 61.742188 5 60.820312 6.078125 60.820312 7.375 C 60.820312 8.1875 61.257812 8.734375 61.429688 8.90625 C 62.039062 9.53125 62.382812 9.609375 63.617188 9.875 C 64.820312 10.140625 64.960938 10.171875 65.226562 10.421875 C 65.382812 10.578125 65.726562 10.90625 65.726562 11.515625 C 65.726562 12.03125 65.476562 12.96875 64.132812 12.96875 C 63.085938 12.96875 61.429688 12.609375 61.335938 10.875 C 61.320312 10.65625 61.320312 10.625 61.070312 10.625 C 60.820312 10.625 60.820312 10.65625 60.820312 10.921875 L 60.820312 13.171875 C 60.820312 13.40625 60.820312 13.484375 61.007812 13.484375 C 61.085938 13.484375 61.101562 13.46875 61.226562 13.375 C 61.351562 13.234375 61.460938 13.078125 61.757812 12.78125 C 62.445312 13.328125 63.429688 13.484375 64.148438 13.484375 C 66.007812 13.484375 66.804688 12.21875 66.804688 10.953125 C 66.804688 9.828125 66.054688 8.75 64.757812 8.453125 Z M 63.117188 8.078125 "
       style=" stroke:none;fill-rule:nonzero;fill:rgb(0%,0%,0%);fill-opacity:1;" />
    <path
       id="path23"
       d="M 72.964844 10.703125 C 73.230469 10.703125 73.308594 10.703125 73.308594 10.40625 C 73.308594 10.046875 73.230469 9.140625 72.667969 8.59375 C 72.167969 8.078125 71.496094 7.921875 70.808594 7.921875 C 68.949219 7.921875 67.933594 9.140625 67.933594 10.65625 C 67.933594 12.328125 69.167969 13.421875 70.964844 13.421875 C 72.777344 13.421875 73.308594 12.15625 73.308594 11.9375 C 73.308594 11.765625 73.121094 11.765625 73.058594 11.765625 C 72.871094 11.765625 72.855469 11.796875 72.777344 11.953125 C 72.464844 12.734375 71.683594 12.984375 71.105469 12.984375 C 69.371094 12.984375 69.371094 11.375 69.371094 10.703125 Z M 69.371094 10.359375 C 69.386719 9.859375 69.402344 9.40625 69.652344 8.96875 C 69.871094 8.59375 70.292969 8.328125 70.808594 8.328125 C 72.089844 8.328125 72.199219 9.765625 72.214844 10.359375 Z M 69.371094 10.359375 "
       style=" stroke:none;fill-rule:nonzero;fill:rgb(0%,0%,0%);fill-opacity:1;" />
    <path
       id="path25"
       d="M 75.242188 11.171875 C 75.820312 11.484375 76.492188 11.484375 76.664062 11.484375 C 78.320312 11.484375 78.976562 10.5625 78.976562 9.71875 C 78.976562 9.109375 78.632812 8.6875 78.492188 8.5625 C 78.835938 8.375 79.117188 8.328125 79.320312 8.296875 C 79.289062 8.359375 79.257812 8.40625 79.257812 8.5625 C 79.257812 8.8125 79.414062 9.046875 79.726562 9.046875 C 80.039062 9.046875 80.210938 8.8125 80.210938 8.5625 C 80.210938 8.28125 79.992188 7.890625 79.492188 7.890625 C 78.976562 7.890625 78.492188 8.140625 78.242188 8.359375 C 77.742188 8.078125 77.273438 7.96875 76.664062 7.96875 C 75.023438 7.96875 74.367188 8.890625 74.367188 9.71875 C 74.367188 10.09375 74.476562 10.578125 74.992188 10.984375 C 74.789062 11.21875 74.570312 11.640625 74.570312 12.0625 C 74.570312 12.578125 74.835938 13.015625 75.101562 13.21875 C 74.804688 13.28125 74.070312 13.5625 74.070312 14.234375 C 74.070312 14.953125 74.835938 15.75 77.039062 15.75 C 79.023438 15.75 80.023438 15.09375 80.023438 14.203125 C 80.023438 13.15625 79.335938 12.8125 79.039062 12.65625 C 78.460938 12.375 77.695312 12.375 76.648438 12.375 C 76.351562 12.375 75.820312 12.375 75.757812 12.359375 C 75.242188 12.28125 75.101562 11.828125 75.101562 11.59375 C 75.101562 11.5 75.117188 11.328125 75.242188 11.171875 Z M 76.664062 11.09375 C 75.632812 11.09375 75.632812 10.265625 75.632812 9.71875 C 75.632812 9.171875 75.632812 8.34375 76.664062 8.34375 C 77.710938 8.34375 77.710938 9.171875 77.710938 9.71875 C 77.710938 10.265625 77.710938 11.09375 76.664062 11.09375 Z M 77.335938 13.46875 C 78.210938 13.46875 79.054688 13.625 79.054688 14.25 C 79.054688 14.671875 78.632812 15.359375 77.054688 15.359375 C 75.476562 15.359375 75.039062 14.6875 75.039062 14.234375 C 75.039062 13.46875 75.804688 13.46875 75.976562 13.46875 Z M 77.335938 13.46875 "
       style=" stroke:none;fill-rule:nonzero;fill:rgb(0%,0%,0%);fill-opacity:1;" />
    <path
       id="path27"
       d="M 90.496094 11.9375 C 90.496094 11.796875 90.371094 11.796875 90.246094 11.796875 C 90.058594 11.796875 90.042969 11.8125 89.980469 11.953125 C 89.902344 12.1875 89.574219 12.984375 88.480469 12.984375 C 86.792969 12.984375 86.792969 11.171875 86.792969 10.625 C 86.792969 9.921875 86.808594 8.359375 88.371094 8.359375 C 88.449219 8.359375 89.152344 8.390625 89.152344 8.4375 C 89.152344 8.453125 89.152344 8.46875 89.121094 8.484375 C 89.089844 8.515625 88.933594 8.6875 88.933594 9 C 88.933594 9.5 89.339844 9.703125 89.636719 9.703125 C 89.886719 9.703125 90.339844 9.546875 90.339844 8.984375 C 90.339844 8 88.964844 7.921875 88.324219 7.921875 C 86.199219 7.921875 85.355469 9.3125 85.355469 10.6875 C 85.355469 12.3125 86.496094 13.421875 88.246094 13.421875 C 90.121094 13.421875 90.496094 12.03125 90.496094 11.9375 Z M 90.496094 11.9375 "
       style=" stroke:none;fill-rule:nonzero;fill:rgb(0%,0%,0%);fill-opacity:1;" />
    <path
       id="path29"
       d="M 97.210938 10.71875 C 97.210938 9.109375 96.117188 7.921875 94.242188 7.921875 C 92.289062 7.921875 91.257812 9.171875 91.257812 10.71875 C 91.257812 12.296875 92.351562 13.421875 94.226562 13.421875 C 96.179688 13.421875 97.210938 12.234375 97.210938 10.71875 Z M 94.242188 12.984375 C 92.695312 12.984375 92.695312 11.59375 92.695312 10.609375 C 92.695312 10.046875 92.695312 9.453125 92.914062 9.015625 C 93.179688 8.53125 93.710938 8.328125 94.226562 8.328125 C 94.914062 8.328125 95.335938 8.640625 95.539062 8.984375 C 95.789062 9.40625 95.789062 10.03125 95.789062 10.609375 C 95.789062 11.59375 95.789062 12.984375 94.242188 12.984375 Z M 94.242188 12.984375 "
       style=" stroke:none;fill-rule:nonzero;fill:rgb(0%,0%,0%);fill-opacity:1;" />
    <path
       id="path31"
       d="M 107.699219 9.6875 C 107.699219 8.59375 107.230469 7.96875 105.886719 7.96875 C 104.683594 7.96875 104.121094 8.78125 103.933594 9.15625 C 103.730469 8.140625 102.917969 7.96875 102.152344 7.96875 C 101.011719 7.96875 100.386719 8.703125 100.136719 9.28125 L 100.121094 9.28125 L 100.121094 7.96875 L 98.105469 8.0625 L 98.105469 8.578125 C 98.855469 8.578125 98.933594 8.578125 98.933594 9.046875 L 98.933594 12.828125 L 98.105469 12.828125 L 98.105469 13.34375 C 98.386719 13.3125 99.246094 13.3125 99.574219 13.3125 C 99.917969 13.3125 100.777344 13.3125 101.058594 13.34375 L 101.058594 12.828125 L 100.230469 12.828125 L 100.230469 10.28125 C 100.230469 8.984375 101.199219 8.359375 101.949219 8.359375 C 102.402344 8.359375 102.667969 8.625 102.667969 9.546875 L 102.667969 12.828125 L 101.839844 12.828125 L 101.839844 13.34375 C 102.105469 13.3125 102.964844 13.3125 103.308594 13.3125 C 103.636719 13.3125 104.511719 13.3125 104.792969 13.34375 L 104.792969 12.828125 L 103.964844 12.828125 L 103.964844 10.28125 C 103.964844 8.984375 104.933594 8.359375 105.683594 8.359375 C 106.121094 8.359375 106.386719 8.625 106.386719 9.546875 L 106.386719 12.828125 L 105.558594 12.828125 L 105.558594 13.34375 C 105.839844 13.3125 106.699219 13.3125 107.042969 13.3125 C 107.371094 13.3125 108.246094 13.3125 108.511719 13.34375 L 108.511719 12.828125 L 107.699219 12.828125 Z M 107.699219 9.6875 "
       style=" stroke:none;fill-rule:nonzero;fill:rgb(0%,0%,0%);fill-opacity:1;" />
    <path
       id="path33"
       d="M 112.1875 15.15625 L 111.359375 15.15625 L 111.359375 12.859375 C 111.65625 13.109375 112.1875 13.421875 112.90625 13.421875 C 114.53125 13.421875 115.8125 12.421875 115.8125 10.671875 C 115.8125 9.03125 114.703125 7.96875 113.09375 7.96875 C 112.390625 7.96875 111.78125 8.203125 111.296875 8.59375 L 111.296875 7.96875 L 109.234375 8.0625 L 109.234375 8.578125 C 109.96875 8.578125 110.0625 8.578125 110.0625 9.046875 L 110.0625 15.15625 L 109.234375 15.15625 L 109.234375 15.65625 C 109.5 15.640625 110.359375 15.640625 110.703125 15.640625 C 111.03125 15.640625 111.90625 15.640625 112.1875 15.65625 Z M 111.359375 9.15625 C 111.796875 8.59375 112.4375 8.390625 112.90625 8.390625 C 113.671875 8.390625 114.375 9.09375 114.375 10.671875 C 114.375 12.40625 113.515625 13.015625 112.75 13.015625 C 112.25 13.015625 111.734375 12.765625 111.359375 12.203125 Z M 111.359375 9.15625 "
       style=" stroke:none;fill-rule:nonzero;fill:rgb(0%,0%,0%);fill-opacity:1;" />
    <path
       id="path35"
       d="M 122.984375 10.71875 C 122.984375 9.109375 121.890625 7.921875 120.015625 7.921875 C 118.0625 7.921875 117.03125 9.171875 117.03125 10.71875 C 117.03125 12.296875 118.125 13.421875 120 13.421875 C 121.953125 13.421875 122.984375 12.234375 122.984375 10.71875 Z M 120.015625 12.984375 C 118.46875 12.984375 118.46875 11.59375 118.46875 10.609375 C 118.46875 10.046875 118.46875 9.453125 118.6875 9.015625 C 118.953125 8.53125 119.484375 8.328125 120 8.328125 C 120.6875 8.328125 121.109375 8.640625 121.3125 8.984375 C 121.5625 9.40625 121.5625 10.03125 121.5625 10.609375 C 121.5625 11.59375 121.5625 12.984375 120.015625 12.984375 Z M 120.015625 12.984375 "
       style=" stroke:none;fill-rule:nonzero;fill:rgb(0%,0%,0%);fill-opacity:1;" />
    <path
       id="path37"
       d="M 127.882812 8.234375 C 127.882812 8.015625 127.882812 7.921875 127.710938 7.921875 C 127.632812 7.921875 127.617188 7.921875 127.429688 8.03125 C 127.382812 8.078125 127.257812 8.15625 127.195312 8.1875 C 126.867188 8 126.414062 7.921875 125.992188 7.921875 C 125.632812 7.921875 123.835938 7.921875 123.835938 9.484375 C 123.835938 10.734375 125.320312 11 125.695312 11.0625 C 126.007812 11.125 126.414062 11.1875 126.460938 11.1875 C 126.929688 11.296875 127.414062 11.59375 127.414062 12.09375 C 127.414062 13.015625 126.320312 13.015625 126.070312 13.015625 C 125.460938 13.015625 124.710938 12.828125 124.367188 11.671875 C 124.304688 11.4375 124.289062 11.421875 124.085938 11.421875 C 123.835938 11.421875 123.835938 11.453125 123.835938 11.734375 L 123.835938 13.109375 C 123.835938 13.328125 123.835938 13.421875 124.023438 13.421875 C 124.101562 13.421875 124.117188 13.421875 124.367188 13.21875 L 124.679688 13 C 125.210938 13.421875 125.851562 13.421875 126.070312 13.421875 C 126.726562 13.421875 128.226562 13.265625 128.226562 11.6875 C 128.226562 11.109375 127.914062 10.71875 127.679688 10.5 C 127.179688 10.09375 126.773438 10.015625 126.132812 9.90625 C 125.367188 9.765625 124.648438 9.640625 124.648438 9.0625 C 124.648438 8.28125 125.710938 8.28125 125.960938 8.28125 C 127.289062 8.28125 127.367188 9.125 127.382812 9.421875 C 127.398438 9.578125 127.492188 9.578125 127.632812 9.578125 C 127.882812 9.578125 127.882812 9.546875 127.882812 9.265625 Z M 127.882812 8.234375 "
       style=" stroke:none;fill-rule:nonzero;fill:rgb(0%,0%,0%);fill-opacity:1;" />
    <path
       id="path39"
       d="M 131.359375 5.890625 C 131.359375 5.40625 130.953125 5.03125 130.5 5.03125 C 130 5.03125 129.625 5.4375 129.625 5.890625 C 129.625 6.34375 130 6.75 130.5 6.75 C 130.953125 6.75 131.359375 6.390625 131.359375 5.890625 Z M 129.25 8.0625 L 129.25 8.578125 C 129.953125 8.578125 130.03125 8.578125 130.03125 9.046875 L 130.03125 12.828125 L 129.21875 12.828125 L 129.21875 13.34375 C 129.484375 13.3125 130.3125 13.3125 130.640625 13.3125 C 130.96875 13.3125 131.734375 13.3125 132.015625 13.34375 L 132.015625 12.828125 L 131.28125 12.828125 L 131.28125 7.96875 Z M 129.25 8.0625 "
       style=" stroke:none;fill-rule:nonzero;fill:rgb(0%,0%,0%);fill-opacity:1;" />
    <path
       id="path41"
       d="M 134.9375 8.546875 L 136.671875 8.546875 L 136.671875 8.03125 L 134.9375 8.03125 L 134.9375 5.75 L 134.4375 5.75 C 134.4375 6.9375 133.859375 8.125 132.671875 8.15625 L 132.671875 8.546875 L 133.640625 8.546875 L 133.640625 11.875 C 133.640625 13.140625 134.625 13.421875 135.484375 13.421875 C 136.359375 13.421875 136.890625 12.75 136.890625 11.859375 L 136.890625 11.234375 L 136.390625 11.234375 L 136.390625 11.84375 C 136.390625 12.640625 136.03125 12.984375 135.65625 12.984375 C 134.9375 12.984375 134.9375 12.1875 134.9375 11.90625 Z M 134.9375 8.546875 "
       style=" stroke:none;fill-rule:nonzero;fill:rgb(0%,0%,0%);fill-opacity:1;" />
    <path
       id="path43"
       d="M 140.324219 5.890625 C 140.324219 5.40625 139.917969 5.03125 139.464844 5.03125 C 138.964844 5.03125 138.589844 5.4375 138.589844 5.890625 C 138.589844 6.34375 138.964844 6.75 139.464844 6.75 C 139.917969 6.75 140.324219 6.390625 140.324219 5.890625 Z M 138.214844 8.0625 L 138.214844 8.578125 C 138.917969 8.578125 138.996094 8.578125 138.996094 9.046875 L 138.996094 12.828125 L 138.183594 12.828125 L 138.183594 13.34375 C 138.449219 13.3125 139.277344 13.3125 139.605469 13.3125 C 139.933594 13.3125 140.699219 13.3125 140.980469 13.34375 L 140.980469 12.828125 L 140.246094 12.828125 L 140.246094 7.96875 Z M 138.214844 8.0625 "
       style=" stroke:none;fill-rule:nonzero;fill:rgb(0%,0%,0%);fill-opacity:1;" />
    <path
       id="path45"
       d="M 147.714844 10.71875 C 147.714844 9.109375 146.621094 7.921875 144.746094 7.921875 C 142.792969 7.921875 141.761719 9.171875 141.761719 10.71875 C 141.761719 12.296875 142.855469 13.421875 144.730469 13.421875 C 146.683594 13.421875 147.714844 12.234375 147.714844 10.71875 Z M 144.746094 12.984375 C 143.199219 12.984375 143.199219 11.59375 143.199219 10.609375 C 143.199219 10.046875 143.199219 9.453125 143.417969 9.015625 C 143.683594 8.53125 144.214844 8.328125 144.730469 8.328125 C 145.417969 8.328125 145.839844 8.640625 146.042969 8.984375 C 146.292969 9.40625 146.292969 10.03125 146.292969 10.609375 C 146.292969 11.59375 146.292969 12.984375 144.746094 12.984375 Z M 144.746094 12.984375 "
       style=" stroke:none;fill-rule:nonzero;fill:rgb(0%,0%,0%);fill-opacity:1;" />
    <path
       id="path47"
       d="M 154.457031 9.6875 C 154.457031 8.546875 153.972656 7.96875 152.660156 7.96875 C 151.800781 7.96875 151.050781 8.390625 150.644531 9.28125 L 150.628906 9.28125 L 150.628906 7.96875 L 148.613281 8.0625 L 148.613281 8.578125 C 149.363281 8.578125 149.441406 8.578125 149.441406 9.046875 L 149.441406 12.828125 L 148.613281 12.828125 L 148.613281 13.34375 C 148.894531 13.3125 149.753906 13.3125 150.082031 13.3125 C 150.425781 13.3125 151.285156 13.3125 151.566406 13.34375 L 151.566406 12.828125 L 150.738281 12.828125 L 150.738281 10.28125 C 150.738281 9 151.691406 8.359375 152.457031 8.359375 C 152.910156 8.359375 153.160156 8.640625 153.160156 9.546875 L 153.160156 12.828125 L 152.332031 12.828125 L 152.332031 13.34375 C 152.613281 13.3125 153.472656 13.3125 153.800781 13.3125 C 154.144531 13.3125 155.003906 13.3125 155.285156 13.34375 L 155.285156 12.828125 L 154.457031 12.828125 Z M 154.457031 9.6875 "
       style=" stroke:none;fill-rule:nonzero;fill:rgb(0%,0%,0%);fill-opacity:1;" />
    <g
       id="g51"
       clip-rule="nonzero"
       clip-path="url(#clip1)">
      <path
         id="path49"
         transform="matrix(1,0,0,-1,0,0)"
         d="M 174.453125 -64.875 L 174.453125 -25.1875 C 200.285156 -11.960938 242.167969 -11.960938 268 -25.1875 C 293.832031 -38.417969 335.710938 -38.417969 361.542969 -25.1875 L 361.542969 -104.558594 C 335.710938 -117.789062 293.832031 -117.789062 268 -104.558594 C 242.167969 -91.332031 200.285156 -91.332031 174.453125 -104.558594 Z M 174.453125 -64.875 "
         style="fill:none;stroke-width:0.3985;stroke-linecap:butt;stroke-linejoin:miter;stroke:rgb(0%,0%,0%);stroke-opacity:1;stroke-miterlimit:10;" />
    </g>
    <path
       id="path53"
       d="M 381.078125 61.328125 L 382.40625 61.328125 L 382.40625 61.859375 C 382.40625 62.046875 382.40625 62.265625 382.734375 62.265625 C 383.09375 62.265625 383.09375 62.0625 383.09375 61.859375 L 383.09375 61.125 C 383.09375 60.828125 383.03125 60.71875 382.6875 60.71875 L 378.796875 60.71875 C 378.46875 60.71875 378.390625 60.796875 378.390625 61.125 L 378.390625 61.859375 C 378.390625 62.046875 378.390625 62.265625 378.71875 62.265625 C 379.078125 62.265625 379.078125 62.0625 379.078125 61.859375 L 379.078125 61.328125 L 380.390625 61.328125 L 380.390625 66.203125 L 379.875 66.203125 C 379.734375 66.203125 379.484375 66.203125 379.484375 66.5 C 379.484375 66.8125 379.71875 66.8125 379.875 66.8125 L 381.609375 66.8125 C 381.75 66.8125 382 66.8125 382 66.515625 C 382 66.203125 381.765625 66.203125 381.609375 66.203125 L 381.078125 66.203125 Z M 381.078125 61.328125 "
       style=" stroke:none;fill-rule:nonzero;fill:rgb(0%,0%,0%);fill-opacity:1;" />
    <path
       id="path55"
       d="M 385.574219 64.953125 C 385.574219 64.015625 386.152344 63.0625 387.355469 63.0625 C 387.371094 63.296875 387.542969 63.5 387.792969 63.5 C 388.011719 63.5 388.214844 63.34375 388.214844 63.078125 C 388.214844 62.875 388.089844 62.453125 387.261719 62.453125 C 386.761719 62.453125 386.121094 62.640625 385.574219 63.265625 L 385.574219 62.921875 C 385.574219 62.609375 385.511719 62.515625 385.167969 62.515625 L 384.074219 62.515625 C 383.917969 62.515625 383.667969 62.515625 383.667969 62.8125 C 383.667969 63.125 383.917969 63.125 384.074219 63.125 L 384.886719 63.125 L 384.886719 66.203125 L 384.074219 66.203125 C 383.917969 66.203125 383.667969 66.203125 383.667969 66.5 C 383.667969 66.8125 383.917969 66.8125 384.074219 66.8125 L 386.667969 66.8125 C 386.824219 66.8125 387.089844 66.8125 387.089844 66.515625 C 387.089844 66.203125 386.824219 66.203125 386.667969 66.203125 L 385.574219 66.203125 Z M 385.574219 64.953125 "
       style=" stroke:none;fill-rule:nonzero;fill:rgb(0%,0%,0%);fill-opacity:1;" />
    <path
       id="path57"
       d="M 392.242188 66.5 C 392.460938 66.796875 392.929688 66.8125 393.304688 66.8125 C 393.585938 66.8125 393.804688 66.8125 393.804688 66.5 C 393.804688 66.203125 393.554688 66.203125 393.414062 66.203125 C 392.992188 66.203125 392.898438 66.15625 392.820312 66.125 L 392.820312 63.96875 C 392.820312 63.265625 392.273438 62.421875 390.835938 62.421875 C 390.414062 62.421875 389.398438 62.421875 389.398438 63.15625 C 389.398438 63.453125 389.601562 63.609375 389.835938 63.609375 C 389.992188 63.609375 390.273438 63.515625 390.273438 63.15625 C 390.273438 63.078125 390.289062 63.0625 390.492188 63.046875 C 390.632812 63.03125 390.757812 63.03125 390.851562 63.03125 C 391.601562 63.03125 392.117188 63.34375 392.117188 64.046875 C 390.367188 64.078125 389.132812 64.578125 389.132812 65.53125 C 389.132812 66.21875 389.757812 66.875 390.773438 66.875 C 391.148438 66.875 391.773438 66.796875 392.242188 66.5 Z M 392.117188 64.640625 L 392.117188 65.484375 C 392.117188 65.703125 392.117188 65.921875 391.742188 66.09375 C 391.382812 66.265625 390.929688 66.265625 390.851562 66.265625 C 390.226562 66.265625 389.820312 65.921875 389.820312 65.53125 C 389.820312 65.046875 390.679688 64.671875 392.117188 64.640625 Z M 392.117188 64.640625 "
       style=" stroke:none;fill-rule:nonzero;fill:rgb(0%,0%,0%);fill-opacity:1;" />
    <path
       id="path59"
       d="M 397.488281 62.921875 C 397.488281 62.609375 397.425781 62.515625 397.082031 62.515625 L 395.503906 62.515625 C 395.347656 62.515625 395.097656 62.515625 395.097656 62.828125 C 395.097656 63.125 395.347656 63.125 395.503906 63.125 L 396.800781 63.125 L 396.800781 67.203125 C 396.800781 67.375 396.800781 67.75 396.535156 68.09375 C 396.269531 68.484375 395.957031 68.484375 395.722656 68.484375 C 395.441406 68.484375 395.316406 68.453125 395.175781 68.4375 C 395.175781 68.40625 395.175781 68.390625 395.175781 68.3125 C 395.175781 68.03125 394.957031 67.875 394.738281 67.875 C 394.519531 67.875 394.300781 68.03125 394.300781 68.328125 C 394.300781 69.078125 395.269531 69.078125 395.675781 69.078125 C 397.128906 69.078125 397.488281 67.890625 397.488281 67.25 Z M 397.488281 61.203125 C 397.488281 60.9375 397.269531 60.71875 396.988281 60.71875 C 396.707031 60.71875 396.488281 60.9375 396.488281 61.203125 C 396.488281 61.484375 396.707031 61.703125 396.988281 61.703125 C 397.269531 61.703125 397.488281 61.484375 397.488281 61.203125 Z M 397.488281 61.203125 "
       style=" stroke:none;fill-rule:nonzero;fill:rgb(0%,0%,0%);fill-opacity:1;" />
    <path
       id="path61"
       d="M 402 64.078125 C 402.28125 64.140625 403.109375 64.34375 403.109375 65.203125 C 403.109375 65.71875 402.671875 66.3125 401.890625 66.3125 C 401.609375 66.3125 401.125 66.28125 400.71875 66 C 400.296875 65.734375 400.265625 65.3125 400.25 65.140625 C 400.25 64.96875 400.234375 64.78125 399.921875 64.78125 C 399.5625 64.78125 399.5625 65 399.5625 65.203125 L 399.5625 66.515625 C 399.5625 66.671875 399.5625 66.921875 399.859375 66.921875 C 400.078125 66.921875 400.140625 66.78125 400.234375 66.46875 C 400.625 66.765625 401.234375 66.921875 401.875 66.921875 C 403.03125 66.921875 403.75 66.046875 403.75 65.15625 C 403.75 64.515625 403.390625 64.09375 403.28125 63.96875 C 402.859375 63.578125 402.59375 63.5 401.8125 63.328125 L 401.015625 63.140625 C 400.59375 63.03125 400.21875 62.671875 400.21875 62.203125 C 400.21875 61.703125 400.703125 61.21875 401.40625 61.21875 C 402.578125 61.21875 402.734375 62.15625 402.796875 62.46875 C 402.828125 62.6875 402.9375 62.75 403.140625 62.75 C 403.484375 62.75 403.484375 62.53125 403.484375 62.34375 L 403.484375 61.015625 C 403.484375 60.859375 403.484375 60.609375 403.1875 60.609375 C 402.9375 60.609375 402.890625 60.78125 402.8125 61.078125 C 402.40625 60.734375 401.875 60.609375 401.421875 60.609375 C 400.3125 60.609375 399.5625 61.40625 399.5625 62.25 C 399.5625 62.921875 400.03125 63.578125 400.84375 63.8125 C 400.890625 63.828125 401.859375 64.046875 402 64.078125 Z M 402 64.078125 "
       style=" stroke:none;fill-rule:nonzero;fill:rgb(0%,0%,0%);fill-opacity:1;" />
    <path
       id="path63"
       d="M 408.511719 64.90625 C 408.714844 64.90625 408.902344 64.90625 408.902344 64.546875 C 408.902344 63.40625 408.261719 62.421875 406.964844 62.421875 C 405.777344 62.421875 404.824219 63.421875 404.824219 64.65625 C 404.824219 65.859375 405.839844 66.875 407.121094 66.875 C 408.433594 66.875 408.902344 65.96875 408.902344 65.71875 C 408.902344 65.453125 408.621094 65.453125 408.558594 65.453125 C 408.371094 65.453125 408.292969 65.484375 408.230469 65.671875 C 408.011719 66.171875 407.464844 66.265625 407.183594 66.265625 C 406.433594 66.265625 405.699219 65.765625 405.527344 64.90625 Z M 405.542969 64.3125 C 405.683594 63.578125 406.277344 63.03125 406.964844 63.03125 C 407.480469 63.03125 408.105469 63.28125 408.199219 64.3125 Z M 405.542969 64.3125 "
       style=" stroke:none;fill-rule:nonzero;fill:rgb(0%,0%,0%);fill-opacity:1;" />
    <path
       id="path65"
       d="M 411.835938 65.0625 C 411.289062 65.0625 410.867188 64.59375 410.867188 64.0625 C 410.867188 63.5 411.304688 63.046875 411.835938 63.046875 C 412.367188 63.046875 412.789062 63.515625 412.789062 64.046875 C 412.789062 64.625 412.351562 65.0625 411.835938 65.0625 Z M 410.929688 65.40625 C 410.960938 65.421875 411.335938 65.65625 411.835938 65.65625 C 412.742188 65.65625 413.476562 64.9375 413.476562 64.046875 C 413.476562 63.75 413.382812 63.46875 413.210938 63.1875 C 413.429688 63.0625 413.664062 63.03125 413.789062 63.015625 C 413.851562 63.28125 414.085938 63.359375 414.179688 63.359375 C 414.351562 63.359375 414.585938 63.234375 414.585938 62.9375 C 414.585938 62.71875 414.398438 62.40625 413.851562 62.40625 C 413.742188 62.40625 413.257812 62.421875 412.804688 62.75 C 412.632812 62.640625 412.289062 62.453125 411.835938 62.453125 C 410.898438 62.453125 410.179688 63.203125 410.179688 64.046875 C 410.179688 64.484375 410.351562 64.8125 410.507812 65 C 410.398438 65.15625 410.304688 65.375 410.304688 65.671875 C 410.304688 66.03125 410.445312 66.28125 410.539062 66.390625 C 409.804688 66.84375 409.804688 67.515625 409.804688 67.625 C 409.804688 68.484375 410.835938 69.09375 412.117188 69.09375 C 413.398438 69.09375 414.445312 68.484375 414.445312 67.625 C 414.445312 67.265625 414.257812 66.765625 413.757812 66.5 C 413.617188 66.421875 413.210938 66.203125 412.304688 66.203125 L 411.617188 66.203125 C 411.539062 66.203125 411.398438 66.203125 411.320312 66.1875 C 411.179688 66.1875 411.117188 66.1875 410.992188 66.046875 C 410.882812 65.90625 410.867188 65.703125 410.867188 65.6875 C 410.867188 65.640625 410.898438 65.5 410.929688 65.40625 Z M 412.117188 68.5 C 411.117188 68.5 410.382812 68.0625 410.382812 67.625 C 410.382812 67.453125 410.460938 67.125 410.789062 66.9375 C 411.039062 66.765625 411.117188 66.765625 411.851562 66.765625 C 412.742188 66.765625 413.867188 66.765625 413.867188 67.625 C 413.867188 68.0625 413.117188 68.5 412.117188 68.5 Z M 412.117188 68.5 "
       style=" stroke:none;fill-rule:nonzero;fill:rgb(0%,0%,0%);fill-opacity:1;" />
    <path
       id="path67"
       transform="matrix(1,0,0,-1,0,0)"
       d="M 361.757812 -64.875 L 374.609375 -64.875 "
       style="fill:none;stroke-width:0.19925;stroke-linecap:butt;stroke-linejoin:miter;stroke:rgb(49.803162%,49.803162%,49.803162%);stroke-opacity:1;stroke-miterlimit:10;" />
    <path
       id="path69"
       transform="matrix(1,0,0,-1,0,0)"
       d="M 193.449219 -70.542969 L 200.796875 -42.195312 L 238.820312 -42.195312 L 246.171875 -70.542969 Z M 193.449219 -70.542969 "
       style="fill:none;stroke-width:0.3985;stroke-linecap:butt;stroke-linejoin:miter;stroke:rgb(0%,0%,0%);stroke-opacity:1;stroke-miterlimit:10;" />
    <path
       id="path71"
       d="M 205.769531 56.976562 L 207.019531 56.976562 C 208.175781 56.976562 208.894531 56.070312 208.894531 55.148438 C 208.894531 54.226562 208.160156 53.320312 207.019531 53.320312 L 204.785156 53.320312 C 204.628906 53.320312 204.378906 53.320312 204.378906 53.617188 C 204.378906 53.929688 204.628906 53.929688 204.785156 53.929688 L 205.082031 53.929688 L 205.082031 58.804688 L 204.785156 58.804688 C 204.628906 58.804688 204.378906 58.804688 204.378906 59.117188 C 204.378906 59.414062 204.628906 59.414062 204.785156 59.414062 L 206.066406 59.414062 C 206.222656 59.414062 206.472656 59.414062 206.472656 59.117188 C 206.472656 58.804688 206.222656 58.804688 206.066406 58.804688 L 205.769531 58.804688 Z M 205.769531 53.929688 L 206.832031 53.929688 C 207.785156 53.929688 208.207031 54.617188 208.207031 55.148438 C 208.207031 55.679688 207.785156 56.367188 206.832031 56.367188 L 205.769531 56.367188 Z M 205.769531 53.929688 "
       style=" stroke:none;fill-rule:nonzero;fill:rgb(0%,0%,0%);fill-opacity:1;" />
    <path
       id="path73"
       d="M 213 59.101562 C 213.21875 59.398438 213.6875 59.414062 214.0625 59.414062 C 214.34375 59.414062 214.5625 59.414062 214.5625 59.101562 C 214.5625 58.804688 214.3125 58.804688 214.171875 58.804688 C 213.75 58.804688 213.65625 58.757812 213.578125 58.726562 L 213.578125 56.570312 C 213.578125 55.867188 213.03125 55.023438 211.59375 55.023438 C 211.171875 55.023438 210.15625 55.023438 210.15625 55.757812 C 210.15625 56.054688 210.359375 56.210938 210.59375 56.210938 C 210.75 56.210938 211.03125 56.117188 211.03125 55.757812 C 211.03125 55.679688 211.046875 55.664062 211.25 55.648438 C 211.390625 55.632812 211.515625 55.632812 211.609375 55.632812 C 212.359375 55.632812 212.875 55.945312 212.875 56.648438 C 211.125 56.679688 209.890625 57.179688 209.890625 58.132812 C 209.890625 58.820312 210.515625 59.476562 211.53125 59.476562 C 211.90625 59.476562 212.53125 59.398438 213 59.101562 Z M 212.875 57.242188 L 212.875 58.085938 C 212.875 58.304688 212.875 58.523438 212.5 58.695312 C 212.140625 58.867188 211.6875 58.867188 211.609375 58.867188 C 210.984375 58.867188 210.578125 58.523438 210.578125 58.132812 C 210.578125 57.648438 211.4375 57.273438 212.875 57.242188 Z M 212.875 57.242188 "
       style=" stroke:none;fill-rule:nonzero;fill:rgb(0%,0%,0%);fill-opacity:1;" />
    <path
       id="path75"
       d="M 216.792969 57.554688 C 216.792969 56.617188 217.371094 55.664062 218.574219 55.664062 C 218.589844 55.898438 218.761719 56.101562 219.011719 56.101562 C 219.230469 56.101562 219.433594 55.945312 219.433594 55.679688 C 219.433594 55.476562 219.308594 55.054688 218.480469 55.054688 C 217.980469 55.054688 217.339844 55.242188 216.792969 55.867188 L 216.792969 55.523438 C 216.792969 55.210938 216.730469 55.117188 216.386719 55.117188 L 215.292969 55.117188 C 215.136719 55.117188 214.886719 55.117188 214.886719 55.414062 C 214.886719 55.726562 215.136719 55.726562 215.292969 55.726562 L 216.105469 55.726562 L 216.105469 58.804688 L 215.292969 58.804688 C 215.136719 58.804688 214.886719 58.804688 214.886719 59.101562 C 214.886719 59.414062 215.136719 59.414062 215.292969 59.414062 L 217.886719 59.414062 C 218.042969 59.414062 218.308594 59.414062 218.308594 59.117188 C 218.308594 58.804688 218.042969 58.804688 217.886719 58.804688 L 216.792969 58.804688 Z M 216.792969 57.554688 "
       style=" stroke:none;fill-rule:nonzero;fill:rgb(0%,0%,0%);fill-opacity:1;" />
    <path
       id="path77"
       d="M 223.460938 59.101562 C 223.679688 59.398438 224.148438 59.414062 224.523438 59.414062 C 224.804688 59.414062 225.023438 59.414062 225.023438 59.101562 C 225.023438 58.804688 224.773438 58.804688 224.632812 58.804688 C 224.210938 58.804688 224.117188 58.757812 224.039062 58.726562 L 224.039062 56.570312 C 224.039062 55.867188 223.492188 55.023438 222.054688 55.023438 C 221.632812 55.023438 220.617188 55.023438 220.617188 55.757812 C 220.617188 56.054688 220.820312 56.210938 221.054688 56.210938 C 221.210938 56.210938 221.492188 56.117188 221.492188 55.757812 C 221.492188 55.679688 221.507812 55.664062 221.710938 55.648438 C 221.851562 55.632812 221.976562 55.632812 222.070312 55.632812 C 222.820312 55.632812 223.335938 55.945312 223.335938 56.648438 C 221.585938 56.679688 220.351562 57.179688 220.351562 58.132812 C 220.351562 58.820312 220.976562 59.476562 221.992188 59.476562 C 222.367188 59.476562 222.992188 59.398438 223.460938 59.101562 Z M 223.335938 57.242188 L 223.335938 58.085938 C 223.335938 58.304688 223.335938 58.523438 222.960938 58.695312 C 222.601562 58.867188 222.148438 58.867188 222.070312 58.867188 C 221.445312 58.867188 221.039062 58.523438 221.039062 58.132812 C 221.039062 57.648438 221.898438 57.273438 223.335938 57.242188 Z M 223.335938 57.242188 "
       style=" stroke:none;fill-rule:nonzero;fill:rgb(0%,0%,0%);fill-opacity:1;" />
    <path
       id="path79"
       d="M 226.128906 55.414062 C 226.097656 55.117188 225.910156 55.117188 225.722656 55.117188 L 225.410156 55.117188 C 225.253906 55.117188 224.988281 55.117188 224.988281 55.414062 C 224.988281 55.726562 225.207031 55.726562 225.566406 55.726562 L 225.566406 58.804688 C 225.207031 58.804688 224.988281 58.804688 224.988281 59.117188 C 224.988281 59.414062 225.269531 59.414062 225.410156 59.414062 L 226.285156 59.414062 C 226.425781 59.414062 226.691406 59.414062 226.691406 59.117188 C 226.691406 58.804688 226.488281 58.804688 226.128906 58.804688 L 226.128906 57.023438 C 226.128906 56.132812 226.535156 55.664062 226.941406 55.664062 C 227.175781 55.664062 227.300781 55.835938 227.300781 56.476562 L 227.300781 58.804688 C 227.113281 58.804688 226.863281 58.804688 226.863281 59.117188 C 226.863281 59.414062 227.144531 59.414062 227.285156 59.414062 L 228.019531 59.414062 C 228.175781 59.414062 228.441406 59.414062 228.441406 59.117188 C 228.441406 58.804688 228.222656 58.804688 227.863281 58.804688 L 227.863281 57.023438 C 227.863281 56.132812 228.269531 55.664062 228.691406 55.664062 C 228.910156 55.664062 229.050781 55.835938 229.050781 56.476562 L 229.050781 58.804688 C 228.863281 58.804688 228.613281 58.804688 228.613281 59.117188 C 228.613281 59.414062 228.878906 59.414062 229.019531 59.414062 L 229.769531 59.414062 C 229.925781 59.414062 230.175781 59.414062 230.175781 59.117188 C 230.175781 58.804688 229.972656 58.804688 229.613281 58.804688 L 229.613281 56.398438 C 229.613281 56.195312 229.613281 55.054688 228.722656 55.054688 C 228.425781 55.054688 228.019531 55.179688 227.738281 55.570312 C 227.582031 55.242188 227.300781 55.054688 226.972656 55.054688 C 226.660156 55.054688 226.363281 55.195312 226.128906 55.414062 Z M 226.128906 55.414062 "
       style=" stroke:none;fill-rule:nonzero;fill:rgb(0%,0%,0%);fill-opacity:1;" />
    <path
       id="path81"
       d="M 233.234375 56.867188 C 233 56.835938 232.8125 56.804688 232.5625 56.757812 C 232.265625 56.710938 231.59375 56.585938 231.59375 56.210938 C 231.59375 55.945312 231.90625 55.632812 232.859375 55.632812 C 233.6875 55.632812 233.828125 55.929688 233.859375 56.195312 C 233.859375 56.367188 233.890625 56.539062 234.1875 56.539062 C 234.546875 56.539062 234.546875 56.320312 234.546875 56.117188 L 234.546875 55.429688 C 234.546875 55.273438 234.546875 55.023438 234.25 55.023438 C 234 55.023438 233.96875 55.164062 233.9375 55.242188 C 233.5 55.023438 233.0625 55.023438 232.875 55.023438 C 231.21875 55.023438 230.984375 55.851562 230.984375 56.210938 C 230.984375 57.117188 232.03125 57.289062 232.953125 57.429688 C 233.4375 57.507812 234.234375 57.632812 234.234375 58.164062 C 234.234375 58.539062 233.859375 58.867188 232.953125 58.867188 C 232.484375 58.867188 231.9375 58.757812 231.6875 57.976562 C 231.625 57.804688 231.59375 57.695312 231.328125 57.695312 C 230.984375 57.695312 230.984375 57.898438 230.984375 58.101562 L 230.984375 59.070312 C 230.984375 59.226562 230.984375 59.476562 231.28125 59.476562 C 231.375 59.476562 231.53125 59.460938 231.65625 59.101562 C 232.140625 59.460938 232.671875 59.476562 232.953125 59.476562 C 234.515625 59.476562 234.84375 58.648438 234.84375 58.164062 C 234.84375 57.132812 233.5625 56.914062 233.234375 56.867188 Z M 233.234375 56.867188 "
       style=" stroke:none;fill-rule:nonzero;fill:rgb(0%,0%,0%);fill-opacity:1;" />
    <path
       id="path83"
       transform="matrix(1,0,0,-1,0,0)"
       d="M 211.304688 -75.515625 L 236.683594 -75.515625 L 230.316406 -81.882812 L 236.683594 -88.246094 L 192.292969 -88.246094 L 185.929688 -81.882812 L 192.292969 -75.515625 Z M 211.304688 -75.515625 "
       style="fill:none;stroke-width:0.3985;stroke-linecap:butt;stroke-linejoin:miter;stroke:rgb(0%,0%,0%);stroke-opacity:1;stroke-miterlimit:10;" />
    <path
       id="path85"
       d="M 200.4375 79.128906 C 200.4375 78.972656 200.4375 78.722656 200.140625 78.722656 C 199.953125 78.722656 199.90625 78.832031 199.859375 78.894531 C 199.84375 78.941406 199.84375 78.957031 199.703125 79.207031 C 199.375 78.925781 198.921875 78.722656 198.40625 78.722656 C 197.125 78.722656 196.015625 80.066406 196.015625 81.878906 C 196.015625 83.707031 197.125 85.035156 198.421875 85.035156 C 199.578125 85.035156 200.4375 84.144531 200.4375 83.253906 C 200.4375 82.925781 200.1875 82.925781 200.078125 82.925781 C 200 82.925781 199.765625 82.925781 199.75 83.207031 C 199.671875 84.191406 198.875 84.425781 198.453125 84.425781 C 197.546875 84.425781 196.703125 83.363281 196.703125 81.878906 C 196.703125 80.394531 197.5625 79.332031 198.453125 79.332031 C 199.046875 79.332031 199.59375 79.785156 199.734375 80.597656 C 199.765625 80.769531 199.78125 80.925781 200.078125 80.925781 C 200.4375 80.925781 200.4375 80.722656 200.4375 80.519531 Z M 200.4375 79.128906 "
       style=" stroke:none;fill-rule:nonzero;fill:rgb(0%,0%,0%);fill-opacity:1;" />
    <path
       id="path87"
       d="M 205.496094 82.769531 C 205.496094 81.519531 204.574219 80.535156 203.449219 80.535156 C 202.339844 80.535156 201.402344 81.519531 201.402344 82.769531 C 201.402344 84.035156 202.355469 84.988281 203.449219 84.988281 C 204.542969 84.988281 205.496094 84.035156 205.496094 82.769531 Z M 203.449219 84.378906 C 202.714844 84.378906 202.089844 83.628906 202.089844 82.707031 C 202.089844 81.800781 202.746094 81.144531 203.449219 81.144531 C 204.167969 81.144531 204.808594 81.800781 204.808594 82.707031 C 204.808594 83.628906 204.183594 84.378906 203.449219 84.378906 Z M 203.449219 84.378906 "
       style=" stroke:none;fill-rule:nonzero;fill:rgb(0%,0%,0%);fill-opacity:1;" />
    <path
       id="path89"
       d="M 210.726562 82.769531 C 210.726562 81.519531 209.804688 80.535156 208.679688 80.535156 C 207.570312 80.535156 206.632812 81.519531 206.632812 82.769531 C 206.632812 84.035156 207.585938 84.988281 208.679688 84.988281 C 209.773438 84.988281 210.726562 84.035156 210.726562 82.769531 Z M 208.679688 84.378906 C 207.945312 84.378906 207.320312 83.628906 207.320312 82.707031 C 207.320312 81.800781 207.976562 81.144531 208.679688 81.144531 C 209.398438 81.144531 210.039062 81.800781 210.039062 82.707031 C 210.039062 83.628906 209.414062 84.378906 208.679688 84.378906 Z M 208.679688 84.378906 "
       style=" stroke:none;fill-rule:nonzero;fill:rgb(0%,0%,0%);fill-opacity:1;" />
    <path
       id="path91"
       d="M 213.519531 83.066406 C 213.519531 82.128906 214.097656 81.175781 215.300781 81.175781 C 215.316406 81.410156 215.488281 81.613281 215.738281 81.613281 C 215.957031 81.613281 216.160156 81.457031 216.160156 81.191406 C 216.160156 80.988281 216.035156 80.566406 215.207031 80.566406 C 214.707031 80.566406 214.066406 80.753906 213.519531 81.378906 L 213.519531 81.035156 C 213.519531 80.722656 213.457031 80.628906 213.113281 80.628906 L 212.019531 80.628906 C 211.863281 80.628906 211.613281 80.628906 211.613281 80.925781 C 211.613281 81.238281 211.863281 81.238281 212.019531 81.238281 L 212.832031 81.238281 L 212.832031 84.316406 L 212.019531 84.316406 C 211.863281 84.316406 211.613281 84.316406 211.613281 84.613281 C 211.613281 84.925781 211.863281 84.925781 212.019531 84.925781 L 214.613281 84.925781 C 214.769531 84.925781 215.035156 84.925781 215.035156 84.628906 C 215.035156 84.316406 214.769531 84.316406 214.613281 84.316406 L 213.519531 84.316406 Z M 213.519531 83.066406 "
       style=" stroke:none;fill-rule:nonzero;fill:rgb(0%,0%,0%);fill-opacity:1;" />
    <path
       id="path93"
       d="M 220.09375 84.425781 C 220.09375 84.785156 220.09375 84.925781 220.5 84.925781 L 221.21875 84.925781 C 221.390625 84.925781 221.640625 84.925781 221.640625 84.613281 C 221.640625 84.316406 221.375 84.316406 221.234375 84.316406 L 220.78125 84.316406 L 220.78125 79.238281 C 220.78125 78.941406 220.734375 78.832031 220.390625 78.832031 L 219.65625 78.832031 C 219.5 78.832031 219.25 78.832031 219.25 79.144531 C 219.25 79.441406 219.515625 79.441406 219.65625 79.441406 L 220.09375 79.441406 L 220.09375 81.019531 C 219.765625 80.722656 219.359375 80.566406 218.9375 80.566406 C 217.84375 80.566406 216.890625 81.519531 216.890625 82.785156 C 216.890625 84.019531 217.78125 84.988281 218.84375 84.988281 C 219.40625 84.988281 219.828125 84.722656 220.09375 84.425781 Z M 220.09375 82.285156 L 220.09375 82.988281 C 220.09375 83.550781 219.65625 84.378906 218.890625 84.378906 C 218.171875 84.378906 217.578125 83.675781 217.578125 82.785156 C 217.578125 81.832031 218.28125 81.175781 218.96875 81.175781 C 219.609375 81.175781 220.09375 81.738281 220.09375 82.285156 Z M 220.09375 82.285156 "
       style=" stroke:none;fill-rule:nonzero;fill:rgb(0%,0%,0%);fill-opacity:1;" />
    <path
       id="path95"
       d="M 224.730469 82.378906 C 224.496094 82.347656 224.308594 82.316406 224.058594 82.269531 C 223.761719 82.222656 223.089844 82.097656 223.089844 81.722656 C 223.089844 81.457031 223.402344 81.144531 224.355469 81.144531 C 225.183594 81.144531 225.324219 81.441406 225.355469 81.707031 C 225.355469 81.878906 225.386719 82.050781 225.683594 82.050781 C 226.042969 82.050781 226.042969 81.832031 226.042969 81.628906 L 226.042969 80.941406 C 226.042969 80.785156 226.042969 80.535156 225.746094 80.535156 C 225.496094 80.535156 225.464844 80.675781 225.433594 80.753906 C 224.996094 80.535156 224.558594 80.535156 224.371094 80.535156 C 222.714844 80.535156 222.480469 81.363281 222.480469 81.722656 C 222.480469 82.628906 223.527344 82.800781 224.449219 82.941406 C 224.933594 83.019531 225.730469 83.144531 225.730469 83.675781 C 225.730469 84.050781 225.355469 84.378906 224.449219 84.378906 C 223.980469 84.378906 223.433594 84.269531 223.183594 83.488281 C 223.121094 83.316406 223.089844 83.207031 222.824219 83.207031 C 222.480469 83.207031 222.480469 83.410156 222.480469 83.613281 L 222.480469 84.582031 C 222.480469 84.738281 222.480469 84.988281 222.777344 84.988281 C 222.871094 84.988281 223.027344 84.972656 223.152344 84.613281 C 223.636719 84.972656 224.167969 84.988281 224.449219 84.988281 C 226.011719 84.988281 226.339844 84.160156 226.339844 83.675781 C 226.339844 82.644531 225.058594 82.425781 224.730469 82.378906 Z M 224.730469 82.378906 "
       style=" stroke:none;fill-rule:nonzero;fill:rgb(0%,0%,0%);fill-opacity:1;" />
    <path
       id="path97"
       transform="matrix(1,0,0,-1,0,0)"
       d="M 259.496094 -75.515625 L 284.871094 -75.515625 L 278.507812 -81.882812 L 284.871094 -88.246094 L 240.484375 -88.246094 L 234.117188 -81.882812 L 240.484375 -75.515625 Z M 259.496094 -75.515625 "
       style="fill:none;stroke-width:0.3985;stroke-linecap:butt;stroke-linejoin:miter;stroke:rgb(0%,0%,0%);stroke-opacity:1;stroke-miterlimit:10;" />
    <path
       id="path99"
       d="M 248.628906 79.128906 C 248.628906 78.972656 248.628906 78.722656 248.332031 78.722656 C 248.144531 78.722656 248.097656 78.832031 248.050781 78.894531 C 248.035156 78.941406 248.035156 78.957031 247.894531 79.207031 C 247.566406 78.925781 247.113281 78.722656 246.597656 78.722656 C 245.316406 78.722656 244.207031 80.066406 244.207031 81.878906 C 244.207031 83.707031 245.316406 85.035156 246.613281 85.035156 C 247.769531 85.035156 248.628906 84.144531 248.628906 83.253906 C 248.628906 82.925781 248.378906 82.925781 248.269531 82.925781 C 248.191406 82.925781 247.957031 82.925781 247.941406 83.207031 C 247.863281 84.191406 247.066406 84.425781 246.644531 84.425781 C 245.738281 84.425781 244.894531 83.363281 244.894531 81.878906 C 244.894531 80.394531 245.753906 79.332031 246.644531 79.332031 C 247.238281 79.332031 247.785156 79.785156 247.925781 80.597656 C 247.957031 80.769531 247.972656 80.925781 248.269531 80.925781 C 248.628906 80.925781 248.628906 80.722656 248.628906 80.519531 Z M 248.628906 79.128906 "
       style=" stroke:none;fill-rule:nonzero;fill:rgb(0%,0%,0%);fill-opacity:1;" />
    <path
       id="path101"
       d="M 253.6875 82.769531 C 253.6875 81.519531 252.765625 80.535156 251.640625 80.535156 C 250.53125 80.535156 249.59375 81.519531 249.59375 82.769531 C 249.59375 84.035156 250.546875 84.988281 251.640625 84.988281 C 252.734375 84.988281 253.6875 84.035156 253.6875 82.769531 Z M 251.640625 84.378906 C 250.90625 84.378906 250.28125 83.628906 250.28125 82.707031 C 250.28125 81.800781 250.9375 81.144531 251.640625 81.144531 C 252.359375 81.144531 253 81.800781 253 82.707031 C 253 83.628906 252.375 84.378906 251.640625 84.378906 Z M 251.640625 84.378906 "
       style=" stroke:none;fill-rule:nonzero;fill:rgb(0%,0%,0%);fill-opacity:1;" />
    <path
       id="path103"
       d="M 258.917969 82.769531 C 258.917969 81.519531 257.996094 80.535156 256.871094 80.535156 C 255.761719 80.535156 254.824219 81.519531 254.824219 82.769531 C 254.824219 84.035156 255.777344 84.988281 256.871094 84.988281 C 257.964844 84.988281 258.917969 84.035156 258.917969 82.769531 Z M 256.871094 84.378906 C 256.136719 84.378906 255.511719 83.628906 255.511719 82.707031 C 255.511719 81.800781 256.167969 81.144531 256.871094 81.144531 C 257.589844 81.144531 258.230469 81.800781 258.230469 82.707031 C 258.230469 83.628906 257.605469 84.378906 256.871094 84.378906 Z M 256.871094 84.378906 "
       style=" stroke:none;fill-rule:nonzero;fill:rgb(0%,0%,0%);fill-opacity:1;" />
    <path
       id="path105"
       d="M 261.710938 83.066406 C 261.710938 82.128906 262.289062 81.175781 263.492188 81.175781 C 263.507812 81.410156 263.679688 81.613281 263.929688 81.613281 C 264.148438 81.613281 264.351562 81.457031 264.351562 81.191406 C 264.351562 80.988281 264.226562 80.566406 263.398438 80.566406 C 262.898438 80.566406 262.257812 80.753906 261.710938 81.378906 L 261.710938 81.035156 C 261.710938 80.722656 261.648438 80.628906 261.304688 80.628906 L 260.210938 80.628906 C 260.054688 80.628906 259.804688 80.628906 259.804688 80.925781 C 259.804688 81.238281 260.054688 81.238281 260.210938 81.238281 L 261.023438 81.238281 L 261.023438 84.316406 L 260.210938 84.316406 C 260.054688 84.316406 259.804688 84.316406 259.804688 84.613281 C 259.804688 84.925781 260.054688 84.925781 260.210938 84.925781 L 262.804688 84.925781 C 262.960938 84.925781 263.226562 84.925781 263.226562 84.628906 C 263.226562 84.316406 262.960938 84.316406 262.804688 84.316406 L 261.710938 84.316406 Z M 261.710938 83.066406 "
       style=" stroke:none;fill-rule:nonzero;fill:rgb(0%,0%,0%);fill-opacity:1;" />
    <path
       id="path107"
       d="M 268.285156 84.425781 C 268.285156 84.785156 268.285156 84.925781 268.691406 84.925781 L 269.410156 84.925781 C 269.582031 84.925781 269.832031 84.925781 269.832031 84.613281 C 269.832031 84.316406 269.566406 84.316406 269.425781 84.316406 L 268.972656 84.316406 L 268.972656 79.238281 C 268.972656 78.941406 268.925781 78.832031 268.582031 78.832031 L 267.847656 78.832031 C 267.691406 78.832031 267.441406 78.832031 267.441406 79.144531 C 267.441406 79.441406 267.707031 79.441406 267.847656 79.441406 L 268.285156 79.441406 L 268.285156 81.019531 C 267.957031 80.722656 267.550781 80.566406 267.128906 80.566406 C 266.035156 80.566406 265.082031 81.519531 265.082031 82.785156 C 265.082031 84.019531 265.972656 84.988281 267.035156 84.988281 C 267.597656 84.988281 268.019531 84.722656 268.285156 84.425781 Z M 268.285156 82.285156 L 268.285156 82.988281 C 268.285156 83.550781 267.847656 84.378906 267.082031 84.378906 C 266.363281 84.378906 265.769531 83.675781 265.769531 82.785156 C 265.769531 81.832031 266.472656 81.175781 267.160156 81.175781 C 267.800781 81.175781 268.285156 81.738281 268.285156 82.285156 Z M 268.285156 82.285156 "
       style=" stroke:none;fill-rule:nonzero;fill:rgb(0%,0%,0%);fill-opacity:1;" />
    <path
       id="path109"
       d="M 272.921875 82.378906 C 272.6875 82.347656 272.5 82.316406 272.25 82.269531 C 271.953125 82.222656 271.28125 82.097656 271.28125 81.722656 C 271.28125 81.457031 271.59375 81.144531 272.546875 81.144531 C 273.375 81.144531 273.515625 81.441406 273.546875 81.707031 C 273.546875 81.878906 273.578125 82.050781 273.875 82.050781 C 274.234375 82.050781 274.234375 81.832031 274.234375 81.628906 L 274.234375 80.941406 C 274.234375 80.785156 274.234375 80.535156 273.9375 80.535156 C 273.6875 80.535156 273.65625 80.675781 273.625 80.753906 C 273.1875 80.535156 272.75 80.535156 272.5625 80.535156 C 270.90625 80.535156 270.671875 81.363281 270.671875 81.722656 C 270.671875 82.628906 271.71875 82.800781 272.640625 82.941406 C 273.125 83.019531 273.921875 83.144531 273.921875 83.675781 C 273.921875 84.050781 273.546875 84.378906 272.640625 84.378906 C 272.171875 84.378906 271.625 84.269531 271.375 83.488281 C 271.3125 83.316406 271.28125 83.207031 271.015625 83.207031 C 270.671875 83.207031 270.671875 83.410156 270.671875 83.613281 L 270.671875 84.582031 C 270.671875 84.738281 270.671875 84.988281 270.96875 84.988281 C 271.0625 84.988281 271.21875 84.972656 271.34375 84.613281 C 271.828125 84.972656 272.359375 84.988281 272.640625 84.988281 C 274.203125 84.988281 274.53125 84.160156 274.53125 83.675781 C 274.53125 82.644531 273.25 82.425781 272.921875 82.378906 Z M 272.921875 82.378906 "
       style=" stroke:none;fill-rule:nonzero;fill:rgb(0%,0%,0%);fill-opacity:1;" />
    <path
       id="path111"
       transform="matrix(1,0,0,-1,0,0)"
       d="M 307.683594 -75.515625 L 333.0625 -75.515625 L 326.695312 -81.882812 L 333.0625 -88.246094 L 288.671875 -88.246094 L 282.308594 -81.882812 L 288.671875 -75.515625 Z M 307.683594 -75.515625 "
       style="fill:none;stroke-width:0.3985;stroke-linecap:butt;stroke-linejoin:miter;stroke:rgb(0%,0%,0%);stroke-opacity:1;stroke-miterlimit:10;" />
    <path
       id="path113"
       d="M 296.816406 79.128906 C 296.816406 78.972656 296.816406 78.722656 296.519531 78.722656 C 296.332031 78.722656 296.285156 78.832031 296.238281 78.894531 C 296.222656 78.941406 296.222656 78.957031 296.082031 79.207031 C 295.753906 78.925781 295.300781 78.722656 294.785156 78.722656 C 293.503906 78.722656 292.394531 80.066406 292.394531 81.878906 C 292.394531 83.707031 293.503906 85.035156 294.800781 85.035156 C 295.957031 85.035156 296.816406 84.144531 296.816406 83.253906 C 296.816406 82.925781 296.566406 82.925781 296.457031 82.925781 C 296.378906 82.925781 296.144531 82.925781 296.128906 83.207031 C 296.050781 84.191406 295.253906 84.425781 294.832031 84.425781 C 293.925781 84.425781 293.082031 83.363281 293.082031 81.878906 C 293.082031 80.394531 293.941406 79.332031 294.832031 79.332031 C 295.425781 79.332031 295.972656 79.785156 296.113281 80.597656 C 296.144531 80.769531 296.160156 80.925781 296.457031 80.925781 C 296.816406 80.925781 296.816406 80.722656 296.816406 80.519531 Z M 296.816406 79.128906 "
       style=" stroke:none;fill-rule:nonzero;fill:rgb(0%,0%,0%);fill-opacity:1;" />
    <path
       id="path115"
       d="M 301.875 82.769531 C 301.875 81.519531 300.953125 80.535156 299.828125 80.535156 C 298.71875 80.535156 297.78125 81.519531 297.78125 82.769531 C 297.78125 84.035156 298.734375 84.988281 299.828125 84.988281 C 300.921875 84.988281 301.875 84.035156 301.875 82.769531 Z M 299.828125 84.378906 C 299.09375 84.378906 298.46875 83.628906 298.46875 82.707031 C 298.46875 81.800781 299.125 81.144531 299.828125 81.144531 C 300.546875 81.144531 301.1875 81.800781 301.1875 82.707031 C 301.1875 83.628906 300.5625 84.378906 299.828125 84.378906 Z M 299.828125 84.378906 "
       style=" stroke:none;fill-rule:nonzero;fill:rgb(0%,0%,0%);fill-opacity:1;" />
    <path
       id="path117"
       d="M 307.105469 82.769531 C 307.105469 81.519531 306.183594 80.535156 305.058594 80.535156 C 303.949219 80.535156 303.011719 81.519531 303.011719 82.769531 C 303.011719 84.035156 303.964844 84.988281 305.058594 84.988281 C 306.152344 84.988281 307.105469 84.035156 307.105469 82.769531 Z M 305.058594 84.378906 C 304.324219 84.378906 303.699219 83.628906 303.699219 82.707031 C 303.699219 81.800781 304.355469 81.144531 305.058594 81.144531 C 305.777344 81.144531 306.417969 81.800781 306.417969 82.707031 C 306.417969 83.628906 305.792969 84.378906 305.058594 84.378906 Z M 305.058594 84.378906 "
       style=" stroke:none;fill-rule:nonzero;fill:rgb(0%,0%,0%);fill-opacity:1;" />
    <path
       id="path119"
       d="M 309.898438 83.066406 C 309.898438 82.128906 310.476562 81.175781 311.679688 81.175781 C 311.695312 81.410156 311.867188 81.613281 312.117188 81.613281 C 312.335938 81.613281 312.539062 81.457031 312.539062 81.191406 C 312.539062 80.988281 312.414062 80.566406 311.585938 80.566406 C 311.085938 80.566406 310.445312 80.753906 309.898438 81.378906 L 309.898438 81.035156 C 309.898438 80.722656 309.835938 80.628906 309.492188 80.628906 L 308.398438 80.628906 C 308.242188 80.628906 307.992188 80.628906 307.992188 80.925781 C 307.992188 81.238281 308.242188 81.238281 308.398438 81.238281 L 309.210938 81.238281 L 309.210938 84.316406 L 308.398438 84.316406 C 308.242188 84.316406 307.992188 84.316406 307.992188 84.613281 C 307.992188 84.925781 308.242188 84.925781 308.398438 84.925781 L 310.992188 84.925781 C 311.148438 84.925781 311.414062 84.925781 311.414062 84.628906 C 311.414062 84.316406 311.148438 84.316406 310.992188 84.316406 L 309.898438 84.316406 Z M 309.898438 83.066406 "
       style=" stroke:none;fill-rule:nonzero;fill:rgb(0%,0%,0%);fill-opacity:1;" />
    <path
       id="path121"
       d="M 316.472656 84.425781 C 316.472656 84.785156 316.472656 84.925781 316.878906 84.925781 L 317.597656 84.925781 C 317.769531 84.925781 318.019531 84.925781 318.019531 84.613281 C 318.019531 84.316406 317.753906 84.316406 317.613281 84.316406 L 317.160156 84.316406 L 317.160156 79.238281 C 317.160156 78.941406 317.113281 78.832031 316.769531 78.832031 L 316.035156 78.832031 C 315.878906 78.832031 315.628906 78.832031 315.628906 79.144531 C 315.628906 79.441406 315.894531 79.441406 316.035156 79.441406 L 316.472656 79.441406 L 316.472656 81.019531 C 316.144531 80.722656 315.738281 80.566406 315.316406 80.566406 C 314.222656 80.566406 313.269531 81.519531 313.269531 82.785156 C 313.269531 84.019531 314.160156 84.988281 315.222656 84.988281 C 315.785156 84.988281 316.207031 84.722656 316.472656 84.425781 Z M 316.472656 82.285156 L 316.472656 82.988281 C 316.472656 83.550781 316.035156 84.378906 315.269531 84.378906 C 314.550781 84.378906 313.957031 83.675781 313.957031 82.785156 C 313.957031 81.832031 314.660156 81.175781 315.347656 81.175781 C 315.988281 81.175781 316.472656 81.738281 316.472656 82.285156 Z M 316.472656 82.285156 "
       style=" stroke:none;fill-rule:nonzero;fill:rgb(0%,0%,0%);fill-opacity:1;" />
    <path
       id="path123"
       d="M 321.109375 82.378906 C 320.875 82.347656 320.6875 82.316406 320.4375 82.269531 C 320.140625 82.222656 319.46875 82.097656 319.46875 81.722656 C 319.46875 81.457031 319.78125 81.144531 320.734375 81.144531 C 321.5625 81.144531 321.703125 81.441406 321.734375 81.707031 C 321.734375 81.878906 321.765625 82.050781 322.0625 82.050781 C 322.421875 82.050781 322.421875 81.832031 322.421875 81.628906 L 322.421875 80.941406 C 322.421875 80.785156 322.421875 80.535156 322.125 80.535156 C 321.875 80.535156 321.84375 80.675781 321.8125 80.753906 C 321.375 80.535156 320.9375 80.535156 320.75 80.535156 C 319.09375 80.535156 318.859375 81.363281 318.859375 81.722656 C 318.859375 82.628906 319.90625 82.800781 320.828125 82.941406 C 321.3125 83.019531 322.109375 83.144531 322.109375 83.675781 C 322.109375 84.050781 321.734375 84.378906 320.828125 84.378906 C 320.359375 84.378906 319.8125 84.269531 319.5625 83.488281 C 319.5 83.316406 319.46875 83.207031 319.203125 83.207031 C 318.859375 83.207031 318.859375 83.410156 318.859375 83.613281 L 318.859375 84.582031 C 318.859375 84.738281 318.859375 84.988281 319.15625 84.988281 C 319.25 84.988281 319.40625 84.972656 319.53125 84.613281 C 320.015625 84.972656 320.546875 84.988281 320.828125 84.988281 C 322.390625 84.988281 322.71875 84.160156 322.71875 83.675781 C 322.71875 82.644531 321.4375 82.425781 321.109375 82.378906 Z M 321.109375 82.378906 "
       style=" stroke:none;fill-rule:nonzero;fill:rgb(0%,0%,0%);fill-opacity:1;" />
    <path
       id="path125"
       d="M 338.09375 81.597656 C 338.09375 80.535156 337.203125 79.675781 336.171875 79.675781 C 335.09375 79.675781 334.21875 80.566406 334.21875 81.597656 C 334.21875 82.660156 335.09375 83.535156 336.171875 83.535156 C 337.203125 83.535156 338.09375 82.675781 338.09375 81.597656 Z M 338.09375 81.597656 "
       style=" stroke:none;fill-rule:nonzero;fill:rgb(0%,0%,0%);fill-opacity:1;" />
    <path
       id="path127"
       d="M 343.632812 81.597656 C 343.632812 80.535156 342.742188 79.675781 341.710938 79.675781 C 340.632812 79.675781 339.757812 80.566406 339.757812 81.597656 C 339.757812 82.660156 340.632812 83.535156 341.710938 83.535156 C 342.742188 83.535156 343.632812 82.675781 343.632812 81.597656 Z M 343.632812 81.597656 "
       style=" stroke:none;fill-rule:nonzero;fill:rgb(0%,0%,0%);fill-opacity:1;" />
    <path
       id="path129"
       d="M 349.160156 81.597656 C 349.160156 80.535156 348.269531 79.675781 347.238281 79.675781 C 346.160156 79.675781 345.285156 80.566406 345.285156 81.597656 C 345.285156 82.660156 346.160156 83.535156 347.238281 83.535156 C 348.269531 83.535156 349.160156 82.675781 349.160156 81.597656 Z M 349.160156 81.597656 "
       style=" stroke:none;fill-rule:nonzero;fill:rgb(0%,0%,0%);fill-opacity:1;" />
  </g>
</svg>
