<?xml version="1.0" encoding="UTF-8" standalone="no"?>
<svg
   xmlns:dc="http://purl.org/dc/elements/1.1/"
   xmlns:cc="http://creativecommons.org/ns#"
   xmlns:rdf="http://www.w3.org/1999/02/22-rdf-syntax-ns#"
   xmlns:svg="http://www.w3.org/2000/svg"
   xmlns="http://www.w3.org/2000/svg"
   id="svg90"
   version="1.2"
   viewBox="0 0 250.332077 109.628281"
   height="109.628281pt"
   width="250.332077pt">
  <metadata
     id="metadata94">
    <rdf:RDF>
      <cc:Work
         rdf:about="">
        <dc:format>image/svg+xml</dc:format>
        <dc:type
           rdf:resource="http://purl.org/dc/dcmitype/StillImage" />
        <dc:title></dc:title>
      </cc:Work>
    </rdf:RDF>
  </metadata>
  <defs
     id="defs5">
    <clipPath
       id="clip1">
      <path
         id="path2"
         d="M 0 0 L 198 0 L 198 109.628906 L 0 109.628906 Z M 0 0 " />
    </clipPath>
  </defs>
  <g
     id="surface580">
    <g
       id="g9"
       clip-rule="nonzero"
       clip-path="url(#clip1)">
      <path
         id="path7"
         transform="matrix(1,0,0,-1,0,0)"
         d="M 5.199219 -54.816406 L 5.199219 -15.128906 C 31.03125 -1.902344 72.914062 -1.902344 98.746094 -15.128906 C 124.578125 -28.359375 166.457031 -28.359375 192.289062 -15.128906 L 192.289062 -94.5 C 166.457031 -107.730469 124.578125 -107.730469 98.746094 -94.5 C 72.914062 -81.273438 31.03125 -81.273438 5.199219 -94.5 Z M 5.199219 -54.816406 "
         style="fill:none;stroke-width:0.3985;stroke-linecap:butt;stroke-linejoin:miter;stroke:rgb(0%,0%,0%);stroke-opacity:1;stroke-miterlimit:10;" />
    </g>
    <path
       id="path11"
       d="M 211.824219 51.269531 L 213.152344 51.269531 L 213.152344 51.800781 C 213.152344 51.988281 213.152344 52.207031 213.480469 52.207031 C 213.839844 52.207031 213.839844 52.003906 213.839844 51.800781 L 213.839844 51.066406 C 213.839844 50.769531 213.777344 50.660156 213.433594 50.660156 L 209.542969 50.660156 C 209.214844 50.660156 209.136719 50.738281 209.136719 51.066406 L 209.136719 51.800781 C 209.136719 51.988281 209.136719 52.207031 209.464844 52.207031 C 209.824219 52.207031 209.824219 52.003906 209.824219 51.800781 L 209.824219 51.269531 L 211.136719 51.269531 L 211.136719 56.144531 L 210.621094 56.144531 C 210.480469 56.144531 210.230469 56.144531 210.230469 56.441406 C 210.230469 56.753906 210.464844 56.753906 210.621094 56.753906 L 212.355469 56.753906 C 212.496094 56.753906 212.746094 56.753906 212.746094 56.457031 C 212.746094 56.144531 212.511719 56.144531 212.355469 56.144531 L 211.824219 56.144531 Z M 211.824219 51.269531 "
       style=" stroke:none;fill-rule:nonzero;fill:rgb(0%,0%,0%);fill-opacity:1;" />
    <path
       id="path13"
       d="M 216.320312 54.894531 C 216.320312 53.957031 216.898438 53.003906 218.101562 53.003906 C 218.117188 53.238281 218.289062 53.441406 218.539062 53.441406 C 218.757812 53.441406 218.960938 53.285156 218.960938 53.019531 C 218.960938 52.816406 218.835938 52.394531 218.007812 52.394531 C 217.507812 52.394531 216.867188 52.582031 216.320312 53.207031 L 216.320312 52.863281 C 216.320312 52.550781 216.257812 52.457031 215.914062 52.457031 L 214.820312 52.457031 C 214.664062 52.457031 214.414062 52.457031 214.414062 52.753906 C 214.414062 53.066406 214.664062 53.066406 214.820312 53.066406 L 215.632812 53.066406 L 215.632812 56.144531 L 214.820312 56.144531 C 214.664062 56.144531 214.414062 56.144531 214.414062 56.441406 C 214.414062 56.753906 214.664062 56.753906 214.820312 56.753906 L 217.414062 56.753906 C 217.570312 56.753906 217.835938 56.753906 217.835938 56.457031 C 217.835938 56.144531 217.570312 56.144531 217.414062 56.144531 L 216.320312 56.144531 Z M 216.320312 54.894531 "
       style=" stroke:none;fill-rule:nonzero;fill:rgb(0%,0%,0%);fill-opacity:1;" />
    <path
       id="path15"
       d="M 222.988281 56.441406 C 223.207031 56.738281 223.675781 56.753906 224.050781 56.753906 C 224.332031 56.753906 224.550781 56.753906 224.550781 56.441406 C 224.550781 56.144531 224.300781 56.144531 224.160156 56.144531 C 223.738281 56.144531 223.644531 56.097656 223.566406 56.066406 L 223.566406 53.910156 C 223.566406 53.207031 223.019531 52.363281 221.582031 52.363281 C 221.160156 52.363281 220.144531 52.363281 220.144531 53.097656 C 220.144531 53.394531 220.347656 53.550781 220.582031 53.550781 C 220.738281 53.550781 221.019531 53.457031 221.019531 53.097656 C 221.019531 53.019531 221.035156 53.003906 221.238281 52.988281 C 221.378906 52.972656 221.503906 52.972656 221.597656 52.972656 C 222.347656 52.972656 222.863281 53.285156 222.863281 53.988281 C 221.113281 54.019531 219.878906 54.519531 219.878906 55.472656 C 219.878906 56.160156 220.503906 56.816406 221.519531 56.816406 C 221.894531 56.816406 222.519531 56.738281 222.988281 56.441406 Z M 222.863281 54.582031 L 222.863281 55.425781 C 222.863281 55.644531 222.863281 55.863281 222.488281 56.035156 C 222.128906 56.207031 221.675781 56.207031 221.597656 56.207031 C 220.972656 56.207031 220.566406 55.863281 220.566406 55.472656 C 220.566406 54.988281 221.425781 54.613281 222.863281 54.582031 Z M 222.863281 54.582031 "
       style=" stroke:none;fill-rule:nonzero;fill:rgb(0%,0%,0%);fill-opacity:1;" />
    <path
       id="path17"
       d="M 228.234375 52.863281 C 228.234375 52.550781 228.171875 52.457031 227.828125 52.457031 L 226.25 52.457031 C 226.09375 52.457031 225.84375 52.457031 225.84375 52.769531 C 225.84375 53.066406 226.09375 53.066406 226.25 53.066406 L 227.546875 53.066406 L 227.546875 57.144531 C 227.546875 57.316406 227.546875 57.691406 227.28125 58.035156 C 227.015625 58.425781 226.703125 58.425781 226.46875 58.425781 C 226.1875 58.425781 226.0625 58.394531 225.921875 58.378906 C 225.921875 58.347656 225.921875 58.332031 225.921875 58.253906 C 225.921875 57.972656 225.703125 57.816406 225.484375 57.816406 C 225.265625 57.816406 225.046875 57.972656 225.046875 58.269531 C 225.046875 59.019531 226.015625 59.019531 226.421875 59.019531 C 227.875 59.019531 228.234375 57.832031 228.234375 57.191406 Z M 228.234375 51.144531 C 228.234375 50.878906 228.015625 50.660156 227.734375 50.660156 C 227.453125 50.660156 227.234375 50.878906 227.234375 51.144531 C 227.234375 51.425781 227.453125 51.644531 227.734375 51.644531 C 228.015625 51.644531 228.234375 51.425781 228.234375 51.144531 Z M 228.234375 51.144531 "
       style=" stroke:none;fill-rule:nonzero;fill:rgb(0%,0%,0%);fill-opacity:1;" />
    <path
       id="path19"
       d="M 232.746094 54.019531 C 233.027344 54.082031 233.855469 54.285156 233.855469 55.144531 C 233.855469 55.660156 233.417969 56.253906 232.636719 56.253906 C 232.355469 56.253906 231.871094 56.222656 231.464844 55.941406 C 231.042969 55.675781 231.011719 55.253906 230.996094 55.082031 C 230.996094 54.910156 230.980469 54.722656 230.667969 54.722656 C 230.308594 54.722656 230.308594 54.941406 230.308594 55.144531 L 230.308594 56.457031 C 230.308594 56.613281 230.308594 56.863281 230.605469 56.863281 C 230.824219 56.863281 230.886719 56.722656 230.980469 56.410156 C 231.371094 56.707031 231.980469 56.863281 232.621094 56.863281 C 233.777344 56.863281 234.496094 55.988281 234.496094 55.097656 C 234.496094 54.457031 234.136719 54.035156 234.027344 53.910156 C 233.605469 53.519531 233.339844 53.441406 232.558594 53.269531 L 231.761719 53.082031 C 231.339844 52.972656 230.964844 52.613281 230.964844 52.144531 C 230.964844 51.644531 231.449219 51.160156 232.152344 51.160156 C 233.324219 51.160156 233.480469 52.097656 233.542969 52.410156 C 233.574219 52.628906 233.683594 52.691406 233.886719 52.691406 C 234.230469 52.691406 234.230469 52.472656 234.230469 52.285156 L 234.230469 50.957031 C 234.230469 50.800781 234.230469 50.550781 233.933594 50.550781 C 233.683594 50.550781 233.636719 50.722656 233.558594 51.019531 C 233.152344 50.675781 232.621094 50.550781 232.167969 50.550781 C 231.058594 50.550781 230.308594 51.347656 230.308594 52.191406 C 230.308594 52.863281 230.777344 53.519531 231.589844 53.753906 C 231.636719 53.769531 232.605469 53.988281 232.746094 54.019531 Z M 232.746094 54.019531 "
       style=" stroke:none;fill-rule:nonzero;fill:rgb(0%,0%,0%);fill-opacity:1;" />
    <path
       id="path21"
       d="M 239.257812 54.847656 C 239.460938 54.847656 239.648438 54.847656 239.648438 54.488281 C 239.648438 53.347656 239.007812 52.363281 237.710938 52.363281 C 236.523438 52.363281 235.570312 53.363281 235.570312 54.597656 C 235.570312 55.800781 236.585938 56.816406 237.867188 56.816406 C 239.179688 56.816406 239.648438 55.910156 239.648438 55.660156 C 239.648438 55.394531 239.367188 55.394531 239.304688 55.394531 C 239.117188 55.394531 239.039062 55.425781 238.976562 55.613281 C 238.757812 56.113281 238.210938 56.207031 237.929688 56.207031 C 237.179688 56.207031 236.445312 55.707031 236.273438 54.847656 Z M 236.289062 54.253906 C 236.429688 53.519531 237.023438 52.972656 237.710938 52.972656 C 238.226562 52.972656 238.851562 53.222656 238.945312 54.253906 Z M 236.289062 54.253906 "
       style=" stroke:none;fill-rule:nonzero;fill:rgb(0%,0%,0%);fill-opacity:1;" />
    <path
       id="path23"
       d="M 242.582031 55.003906 C 242.035156 55.003906 241.613281 54.535156 241.613281 54.003906 C 241.613281 53.441406 242.050781 52.988281 242.582031 52.988281 C 243.113281 52.988281 243.535156 53.457031 243.535156 53.988281 C 243.535156 54.566406 243.097656 55.003906 242.582031 55.003906 Z M 241.675781 55.347656 C 241.707031 55.363281 242.082031 55.597656 242.582031 55.597656 C 243.488281 55.597656 244.222656 54.878906 244.222656 53.988281 C 244.222656 53.691406 244.128906 53.410156 243.957031 53.128906 C 244.175781 53.003906 244.410156 52.972656 244.535156 52.957031 C 244.597656 53.222656 244.832031 53.300781 244.925781 53.300781 C 245.097656 53.300781 245.332031 53.175781 245.332031 52.878906 C 245.332031 52.660156 245.144531 52.347656 244.597656 52.347656 C 244.488281 52.347656 244.003906 52.363281 243.550781 52.691406 C 243.378906 52.582031 243.035156 52.394531 242.582031 52.394531 C 241.644531 52.394531 240.925781 53.144531 240.925781 53.988281 C 240.925781 54.425781 241.097656 54.753906 241.253906 54.941406 C 241.144531 55.097656 241.050781 55.316406 241.050781 55.613281 C 241.050781 55.972656 241.191406 56.222656 241.285156 56.332031 C 240.550781 56.785156 240.550781 57.457031 240.550781 57.566406 C 240.550781 58.425781 241.582031 59.035156 242.863281 59.035156 C 244.144531 59.035156 245.191406 58.425781 245.191406 57.566406 C 245.191406 57.207031 245.003906 56.707031 244.503906 56.441406 C 244.363281 56.363281 243.957031 56.144531 243.050781 56.144531 L 242.363281 56.144531 C 242.285156 56.144531 242.144531 56.144531 242.066406 56.128906 C 241.925781 56.128906 241.863281 56.128906 241.738281 55.988281 C 241.628906 55.847656 241.613281 55.644531 241.613281 55.628906 C 241.613281 55.582031 241.644531 55.441406 241.675781 55.347656 Z M 242.863281 58.441406 C 241.863281 58.441406 241.128906 58.003906 241.128906 57.566406 C 241.128906 57.394531 241.207031 57.066406 241.535156 56.878906 C 241.785156 56.707031 241.863281 56.707031 242.597656 56.707031 C 243.488281 56.707031 244.613281 56.707031 244.613281 57.566406 C 244.613281 58.003906 243.863281 58.441406 242.863281 58.441406 Z M 242.863281 58.441406 "
       style=" stroke:none;fill-rule:nonzero;fill:rgb(0%,0%,0%);fill-opacity:1;" />
    <path
       id="path25"
       d="M 192.503906 54.816406 L 205.355469 54.816406 "
       style="fill:none;stroke-width:0.19925;stroke-linecap:butt;stroke-linejoin:miter;stroke:rgb(49.01886%,49.01886%,49.01886%);stroke-opacity:1;stroke-miterlimit:10;" />
    <path
       id="path27"
       d="M 24.195312 60.484375 L 31.542969 32.136719 L 69.566406 32.136719 L 76.917969 60.484375 Z M 24.195312 60.484375 "
       style="fill:none;stroke-width:0.3985;stroke-linecap:butt;stroke-linejoin:miter;stroke:rgb(0%,0%,0%);stroke-opacity:1;stroke-miterlimit:10;" />
    <path
       id="path29"
       d="M 36.515625 46.917969 L 37.765625 46.917969 C 38.921875 46.917969 39.640625 46.011719 39.640625 45.089844 C 39.640625 44.167969 38.90625 43.261719 37.765625 43.261719 L 35.53125 43.261719 C 35.375 43.261719 35.125 43.261719 35.125 43.558594 C 35.125 43.871094 35.375 43.871094 35.53125 43.871094 L 35.828125 43.871094 L 35.828125 48.746094 L 35.53125 48.746094 C 35.375 48.746094 35.125 48.746094 35.125 49.058594 C 35.125 49.355469 35.375 49.355469 35.53125 49.355469 L 36.8125 49.355469 C 36.96875 49.355469 37.21875 49.355469 37.21875 49.058594 C 37.21875 48.746094 36.96875 48.746094 36.8125 48.746094 L 36.515625 48.746094 Z M 36.515625 43.871094 L 37.578125 43.871094 C 38.53125 43.871094 38.953125 44.558594 38.953125 45.089844 C 38.953125 45.621094 38.53125 46.308594 37.578125 46.308594 L 36.515625 46.308594 Z M 36.515625 43.871094 "
       style=" stroke:none;fill-rule:nonzero;fill:rgb(0%,0%,0%);fill-opacity:1;" />
    <path
       id="path31"
       d="M 43.746094 49.042969 C 43.964844 49.339844 44.433594 49.355469 44.808594 49.355469 C 45.089844 49.355469 45.308594 49.355469 45.308594 49.042969 C 45.308594 48.746094 45.058594 48.746094 44.917969 48.746094 C 44.496094 48.746094 44.402344 48.699219 44.324219 48.667969 L 44.324219 46.511719 C 44.324219 45.808594 43.777344 44.964844 42.339844 44.964844 C 41.917969 44.964844 40.902344 44.964844 40.902344 45.699219 C 40.902344 45.996094 41.105469 46.152344 41.339844 46.152344 C 41.496094 46.152344 41.777344 46.058594 41.777344 45.699219 C 41.777344 45.621094 41.792969 45.605469 41.996094 45.589844 C 42.136719 45.574219 42.261719 45.574219 42.355469 45.574219 C 43.105469 45.574219 43.621094 45.886719 43.621094 46.589844 C 41.871094 46.621094 40.636719 47.121094 40.636719 48.074219 C 40.636719 48.761719 41.261719 49.417969 42.277344 49.417969 C 42.652344 49.417969 43.277344 49.339844 43.746094 49.042969 Z M 43.621094 47.183594 L 43.621094 48.027344 C 43.621094 48.246094 43.621094 48.464844 43.246094 48.636719 C 42.886719 48.808594 42.433594 48.808594 42.355469 48.808594 C 41.730469 48.808594 41.324219 48.464844 41.324219 48.074219 C 41.324219 47.589844 42.183594 47.214844 43.621094 47.183594 Z M 43.621094 47.183594 "
       style=" stroke:none;fill-rule:nonzero;fill:rgb(0%,0%,0%);fill-opacity:1;" />
    <path
       id="path33"
       d="M 47.539062 47.496094 C 47.539062 46.558594 48.117188 45.605469 49.320312 45.605469 C 49.335938 45.839844 49.507812 46.042969 49.757812 46.042969 C 49.976562 46.042969 50.179688 45.886719 50.179688 45.621094 C 50.179688 45.417969 50.054688 44.996094 49.226562 44.996094 C 48.726562 44.996094 48.085938 45.183594 47.539062 45.808594 L 47.539062 45.464844 C 47.539062 45.152344 47.476562 45.058594 47.132812 45.058594 L 46.039062 45.058594 C 45.882812 45.058594 45.632812 45.058594 45.632812 45.355469 C 45.632812 45.667969 45.882812 45.667969 46.039062 45.667969 L 46.851562 45.667969 L 46.851562 48.746094 L 46.039062 48.746094 C 45.882812 48.746094 45.632812 48.746094 45.632812 49.042969 C 45.632812 49.355469 45.882812 49.355469 46.039062 49.355469 L 48.632812 49.355469 C 48.789062 49.355469 49.054688 49.355469 49.054688 49.058594 C 49.054688 48.746094 48.789062 48.746094 48.632812 48.746094 L 47.539062 48.746094 Z M 47.539062 47.496094 "
       style=" stroke:none;fill-rule:nonzero;fill:rgb(0%,0%,0%);fill-opacity:1;" />
    <path
       id="path35"
       d="M 54.207031 49.042969 C 54.425781 49.339844 54.894531 49.355469 55.269531 49.355469 C 55.550781 49.355469 55.769531 49.355469 55.769531 49.042969 C 55.769531 48.746094 55.519531 48.746094 55.378906 48.746094 C 54.957031 48.746094 54.863281 48.699219 54.785156 48.667969 L 54.785156 46.511719 C 54.785156 45.808594 54.238281 44.964844 52.800781 44.964844 C 52.378906 44.964844 51.363281 44.964844 51.363281 45.699219 C 51.363281 45.996094 51.566406 46.152344 51.800781 46.152344 C 51.957031 46.152344 52.238281 46.058594 52.238281 45.699219 C 52.238281 45.621094 52.253906 45.605469 52.457031 45.589844 C 52.597656 45.574219 52.722656 45.574219 52.816406 45.574219 C 53.566406 45.574219 54.082031 45.886719 54.082031 46.589844 C 52.332031 46.621094 51.097656 47.121094 51.097656 48.074219 C 51.097656 48.761719 51.722656 49.417969 52.738281 49.417969 C 53.113281 49.417969 53.738281 49.339844 54.207031 49.042969 Z M 54.082031 47.183594 L 54.082031 48.027344 C 54.082031 48.246094 54.082031 48.464844 53.707031 48.636719 C 53.347656 48.808594 52.894531 48.808594 52.816406 48.808594 C 52.191406 48.808594 51.785156 48.464844 51.785156 48.074219 C 51.785156 47.589844 52.644531 47.214844 54.082031 47.183594 Z M 54.082031 47.183594 "
       style=" stroke:none;fill-rule:nonzero;fill:rgb(0%,0%,0%);fill-opacity:1;" />
    <path
       id="path37"
       d="M 56.875 45.355469 C 56.84375 45.058594 56.65625 45.058594 56.46875 45.058594 L 56.15625 45.058594 C 56 45.058594 55.734375 45.058594 55.734375 45.355469 C 55.734375 45.667969 55.953125 45.667969 56.3125 45.667969 L 56.3125 48.746094 C 55.953125 48.746094 55.734375 48.746094 55.734375 49.058594 C 55.734375 49.355469 56.015625 49.355469 56.15625 49.355469 L 57.03125 49.355469 C 57.171875 49.355469 57.4375 49.355469 57.4375 49.058594 C 57.4375 48.746094 57.234375 48.746094 56.875 48.746094 L 56.875 46.964844 C 56.875 46.074219 57.28125 45.605469 57.6875 45.605469 C 57.921875 45.605469 58.046875 45.777344 58.046875 46.417969 L 58.046875 48.746094 C 57.859375 48.746094 57.609375 48.746094 57.609375 49.058594 C 57.609375 49.355469 57.890625 49.355469 58.03125 49.355469 L 58.765625 49.355469 C 58.921875 49.355469 59.1875 49.355469 59.1875 49.058594 C 59.1875 48.746094 58.96875 48.746094 58.609375 48.746094 L 58.609375 46.964844 C 58.609375 46.074219 59.015625 45.605469 59.4375 45.605469 C 59.65625 45.605469 59.796875 45.777344 59.796875 46.417969 L 59.796875 48.746094 C 59.609375 48.746094 59.359375 48.746094 59.359375 49.058594 C 59.359375 49.355469 59.625 49.355469 59.765625 49.355469 L 60.515625 49.355469 C 60.671875 49.355469 60.921875 49.355469 60.921875 49.058594 C 60.921875 48.746094 60.71875 48.746094 60.359375 48.746094 L 60.359375 46.339844 C 60.359375 46.136719 60.359375 44.996094 59.46875 44.996094 C 59.171875 44.996094 58.765625 45.121094 58.484375 45.511719 C 58.328125 45.183594 58.046875 44.996094 57.71875 44.996094 C 57.40625 44.996094 57.109375 45.136719 56.875 45.355469 Z M 56.875 45.355469 "
       style=" stroke:none;fill-rule:nonzero;fill:rgb(0%,0%,0%);fill-opacity:1;" />
    <path
       id="path39"
       d="M 63.980469 46.808594 C 63.746094 46.777344 63.558594 46.746094 63.308594 46.699219 C 63.011719 46.652344 62.339844 46.527344 62.339844 46.152344 C 62.339844 45.886719 62.652344 45.574219 63.605469 45.574219 C 64.433594 45.574219 64.574219 45.871094 64.605469 46.136719 C 64.605469 46.308594 64.636719 46.480469 64.933594 46.480469 C 65.292969 46.480469 65.292969 46.261719 65.292969 46.058594 L 65.292969 45.371094 C 65.292969 45.214844 65.292969 44.964844 64.996094 44.964844 C 64.746094 44.964844 64.714844 45.105469 64.683594 45.183594 C 64.246094 44.964844 63.808594 44.964844 63.621094 44.964844 C 61.964844 44.964844 61.730469 45.792969 61.730469 46.152344 C 61.730469 47.058594 62.777344 47.230469 63.699219 47.371094 C 64.183594 47.449219 64.980469 47.574219 64.980469 48.105469 C 64.980469 48.480469 64.605469 48.808594 63.699219 48.808594 C 63.230469 48.808594 62.683594 48.699219 62.433594 47.917969 C 62.371094 47.746094 62.339844 47.636719 62.074219 47.636719 C 61.730469 47.636719 61.730469 47.839844 61.730469 48.042969 L 61.730469 49.011719 C 61.730469 49.167969 61.730469 49.417969 62.027344 49.417969 C 62.121094 49.417969 62.277344 49.402344 62.402344 49.042969 C 62.886719 49.402344 63.417969 49.417969 63.699219 49.417969 C 65.261719 49.417969 65.589844 48.589844 65.589844 48.105469 C 65.589844 47.074219 64.308594 46.855469 63.980469 46.808594 Z M 63.980469 46.808594 "
       style=" stroke:none;fill-rule:nonzero;fill:rgb(0%,0%,0%);fill-opacity:1;" />
    <path
       id="path41"
       d="M 42.050781 65.457031 L 67.429688 65.457031 L 61.0625 71.824219 L 67.429688 78.1875 L 23.039062 78.1875 L 16.675781 71.824219 L 23.039062 65.457031 Z M 42.050781 65.457031 "
       style="fill:none;stroke-width:0.3985;stroke-linecap:butt;stroke-linejoin:miter;stroke:rgb(0%,0%,0%);stroke-opacity:1;stroke-miterlimit:10;" />
    <path
       id="path43"
       d="M 31.183594 69.070312 C 31.183594 68.914062 31.183594 68.664062 30.886719 68.664062 C 30.699219 68.664062 30.652344 68.773438 30.605469 68.835938 C 30.589844 68.882812 30.589844 68.898438 30.449219 69.148438 C 30.121094 68.867188 29.667969 68.664062 29.152344 68.664062 C 27.871094 68.664062 26.761719 70.007812 26.761719 71.820312 C 26.761719 73.648438 27.871094 74.976562 29.167969 74.976562 C 30.324219 74.976562 31.183594 74.085938 31.183594 73.195312 C 31.183594 72.867188 30.933594 72.867188 30.824219 72.867188 C 30.746094 72.867188 30.511719 72.867188 30.496094 73.148438 C 30.417969 74.132812 29.621094 74.367188 29.199219 74.367188 C 28.292969 74.367188 27.449219 73.304688 27.449219 71.820312 C 27.449219 70.335938 28.308594 69.273438 29.199219 69.273438 C 29.792969 69.273438 30.339844 69.726562 30.480469 70.539062 C 30.511719 70.710938 30.527344 70.867188 30.824219 70.867188 C 31.183594 70.867188 31.183594 70.664062 31.183594 70.460938 Z M 31.183594 69.070312 "
       style=" stroke:none;fill-rule:nonzero;fill:rgb(0%,0%,0%);fill-opacity:1;" />
    <path
       id="path45"
       d="M 36.242188 72.710938 C 36.242188 71.460938 35.320312 70.476562 34.195312 70.476562 C 33.085938 70.476562 32.148438 71.460938 32.148438 72.710938 C 32.148438 73.976562 33.101562 74.929688 34.195312 74.929688 C 35.289062 74.929688 36.242188 73.976562 36.242188 72.710938 Z M 34.195312 74.320312 C 33.460938 74.320312 32.835938 73.570312 32.835938 72.648438 C 32.835938 71.742188 33.492188 71.085938 34.195312 71.085938 C 34.914062 71.085938 35.554688 71.742188 35.554688 72.648438 C 35.554688 73.570312 34.929688 74.320312 34.195312 74.320312 Z M 34.195312 74.320312 "
       style=" stroke:none;fill-rule:nonzero;fill:rgb(0%,0%,0%);fill-opacity:1;" />
    <path
       id="path47"
       d="M 41.472656 72.710938 C 41.472656 71.460938 40.550781 70.476562 39.425781 70.476562 C 38.316406 70.476562 37.378906 71.460938 37.378906 72.710938 C 37.378906 73.976562 38.332031 74.929688 39.425781 74.929688 C 40.519531 74.929688 41.472656 73.976562 41.472656 72.710938 Z M 39.425781 74.320312 C 38.691406 74.320312 38.066406 73.570312 38.066406 72.648438 C 38.066406 71.742188 38.722656 71.085938 39.425781 71.085938 C 40.144531 71.085938 40.785156 71.742188 40.785156 72.648438 C 40.785156 73.570312 40.160156 74.320312 39.425781 74.320312 Z M 39.425781 74.320312 "
       style=" stroke:none;fill-rule:nonzero;fill:rgb(0%,0%,0%);fill-opacity:1;" />
    <path
       id="path49"
       d="M 44.265625 73.007812 C 44.265625 72.070312 44.84375 71.117188 46.046875 71.117188 C 46.0625 71.351562 46.234375 71.554688 46.484375 71.554688 C 46.703125 71.554688 46.90625 71.398438 46.90625 71.132812 C 46.90625 70.929688 46.78125 70.507812 45.953125 70.507812 C 45.453125 70.507812 44.8125 70.695312 44.265625 71.320312 L 44.265625 70.976562 C 44.265625 70.664062 44.203125 70.570312 43.859375 70.570312 L 42.765625 70.570312 C 42.609375 70.570312 42.359375 70.570312 42.359375 70.867188 C 42.359375 71.179688 42.609375 71.179688 42.765625 71.179688 L 43.578125 71.179688 L 43.578125 74.257812 L 42.765625 74.257812 C 42.609375 74.257812 42.359375 74.257812 42.359375 74.554688 C 42.359375 74.867188 42.609375 74.867188 42.765625 74.867188 L 45.359375 74.867188 C 45.515625 74.867188 45.78125 74.867188 45.78125 74.570312 C 45.78125 74.257812 45.515625 74.257812 45.359375 74.257812 L 44.265625 74.257812 Z M 44.265625 73.007812 "
       style=" stroke:none;fill-rule:nonzero;fill:rgb(0%,0%,0%);fill-opacity:1;" />
    <path
       id="path51"
       d="M 50.839844 74.367188 C 50.839844 74.726562 50.839844 74.867188 51.246094 74.867188 L 51.964844 74.867188 C 52.136719 74.867188 52.386719 74.867188 52.386719 74.554688 C 52.386719 74.257812 52.121094 74.257812 51.980469 74.257812 L 51.527344 74.257812 L 51.527344 69.179688 C 51.527344 68.882812 51.480469 68.773438 51.136719 68.773438 L 50.402344 68.773438 C 50.246094 68.773438 49.996094 68.773438 49.996094 69.085938 C 49.996094 69.382812 50.261719 69.382812 50.402344 69.382812 L 50.839844 69.382812 L 50.839844 70.960938 C 50.511719 70.664062 50.105469 70.507812 49.683594 70.507812 C 48.589844 70.507812 47.636719 71.460938 47.636719 72.726562 C 47.636719 73.960938 48.527344 74.929688 49.589844 74.929688 C 50.152344 74.929688 50.574219 74.664062 50.839844 74.367188 Z M 50.839844 72.226562 L 50.839844 72.929688 C 50.839844 73.492188 50.402344 74.320312 49.636719 74.320312 C 48.917969 74.320312 48.324219 73.617188 48.324219 72.726562 C 48.324219 71.773438 49.027344 71.117188 49.714844 71.117188 C 50.355469 71.117188 50.839844 71.679688 50.839844 72.226562 Z M 50.839844 72.226562 "
       style=" stroke:none;fill-rule:nonzero;fill:rgb(0%,0%,0%);fill-opacity:1;" />
    <path
       id="path53"
       d="M 55.476562 72.320312 C 55.242188 72.289062 55.054688 72.257812 54.804688 72.210938 C 54.507812 72.164062 53.835938 72.039062 53.835938 71.664062 C 53.835938 71.398438 54.148438 71.085938 55.101562 71.085938 C 55.929688 71.085938 56.070312 71.382812 56.101562 71.648438 C 56.101562 71.820312 56.132812 71.992188 56.429688 71.992188 C 56.789062 71.992188 56.789062 71.773438 56.789062 71.570312 L 56.789062 70.882812 C 56.789062 70.726562 56.789062 70.476562 56.492188 70.476562 C 56.242188 70.476562 56.210938 70.617188 56.179688 70.695312 C 55.742188 70.476562 55.304688 70.476562 55.117188 70.476562 C 53.460938 70.476562 53.226562 71.304688 53.226562 71.664062 C 53.226562 72.570312 54.273438 72.742188 55.195312 72.882812 C 55.679688 72.960938 56.476562 73.085938 56.476562 73.617188 C 56.476562 73.992188 56.101562 74.320312 55.195312 74.320312 C 54.726562 74.320312 54.179688 74.210938 53.929688 73.429688 C 53.867188 73.257812 53.835938 73.148438 53.570312 73.148438 C 53.226562 73.148438 53.226562 73.351562 53.226562 73.554688 L 53.226562 74.523438 C 53.226562 74.679688 53.226562 74.929688 53.523438 74.929688 C 53.617188 74.929688 53.773438 74.914062 53.898438 74.554688 C 54.382812 74.914062 54.914062 74.929688 55.195312 74.929688 C 56.757812 74.929688 57.085938 74.101562 57.085938 73.617188 C 57.085938 72.585938 55.804688 72.367188 55.476562 72.320312 Z M 55.476562 72.320312 "
       style=" stroke:none;fill-rule:nonzero;fill:rgb(0%,0%,0%);fill-opacity:1;" />
    <path
       id="path55"
       d="M 90.242188 65.457031 L 115.617188 65.457031 L 109.253906 71.824219 L 115.617188 78.1875 L 71.230469 78.1875 L 64.863281 71.824219 L 71.230469 65.457031 Z M 90.242188 65.457031 "
       style="fill:none;stroke-width:0.3985;stroke-linecap:butt;stroke-linejoin:miter;stroke:rgb(0%,0%,0%);stroke-opacity:1;stroke-miterlimit:10;" />
    <path
       id="path57"
       d="M 79.375 69.070312 C 79.375 68.914062 79.375 68.664062 79.078125 68.664062 C 78.890625 68.664062 78.84375 68.773438 78.796875 68.835938 C 78.78125 68.882812 78.78125 68.898438 78.640625 69.148438 C 78.3125 68.867188 77.859375 68.664062 77.34375 68.664062 C 76.0625 68.664062 74.953125 70.007812 74.953125 71.820312 C 74.953125 73.648438 76.0625 74.976562 77.359375 74.976562 C 78.515625 74.976562 79.375 74.085938 79.375 73.195312 C 79.375 72.867188 79.125 72.867188 79.015625 72.867188 C 78.9375 72.867188 78.703125 72.867188 78.6875 73.148438 C 78.609375 74.132812 77.8125 74.367188 77.390625 74.367188 C 76.484375 74.367188 75.640625 73.304688 75.640625 71.820312 C 75.640625 70.335938 76.5 69.273438 77.390625 69.273438 C 77.984375 69.273438 78.53125 69.726562 78.671875 70.539062 C 78.703125 70.710938 78.71875 70.867188 79.015625 70.867188 C 79.375 70.867188 79.375 70.664062 79.375 70.460938 Z M 79.375 69.070312 "
       style=" stroke:none;fill-rule:nonzero;fill:rgb(0%,0%,0%);fill-opacity:1;" />
    <path
       id="path59"
       d="M 84.433594 72.710938 C 84.433594 71.460938 83.511719 70.476562 82.386719 70.476562 C 81.277344 70.476562 80.339844 71.460938 80.339844 72.710938 C 80.339844 73.976562 81.292969 74.929688 82.386719 74.929688 C 83.480469 74.929688 84.433594 73.976562 84.433594 72.710938 Z M 82.386719 74.320312 C 81.652344 74.320312 81.027344 73.570312 81.027344 72.648438 C 81.027344 71.742188 81.683594 71.085938 82.386719 71.085938 C 83.105469 71.085938 83.746094 71.742188 83.746094 72.648438 C 83.746094 73.570312 83.121094 74.320312 82.386719 74.320312 Z M 82.386719 74.320312 "
       style=" stroke:none;fill-rule:nonzero;fill:rgb(0%,0%,0%);fill-opacity:1;" />
    <path
       id="path61"
       d="M 89.664062 72.710938 C 89.664062 71.460938 88.742188 70.476562 87.617188 70.476562 C 86.507812 70.476562 85.570312 71.460938 85.570312 72.710938 C 85.570312 73.976562 86.523438 74.929688 87.617188 74.929688 C 88.710938 74.929688 89.664062 73.976562 89.664062 72.710938 Z M 87.617188 74.320312 C 86.882812 74.320312 86.257812 73.570312 86.257812 72.648438 C 86.257812 71.742188 86.914062 71.085938 87.617188 71.085938 C 88.335938 71.085938 88.976562 71.742188 88.976562 72.648438 C 88.976562 73.570312 88.351562 74.320312 87.617188 74.320312 Z M 87.617188 74.320312 "
       style=" stroke:none;fill-rule:nonzero;fill:rgb(0%,0%,0%);fill-opacity:1;" />
    <path
       id="path63"
       d="M 92.457031 73.007812 C 92.457031 72.070312 93.035156 71.117188 94.238281 71.117188 C 94.253906 71.351562 94.425781 71.554688 94.675781 71.554688 C 94.894531 71.554688 95.097656 71.398438 95.097656 71.132812 C 95.097656 70.929688 94.972656 70.507812 94.144531 70.507812 C 93.644531 70.507812 93.003906 70.695312 92.457031 71.320312 L 92.457031 70.976562 C 92.457031 70.664062 92.394531 70.570312 92.050781 70.570312 L 90.957031 70.570312 C 90.800781 70.570312 90.550781 70.570312 90.550781 70.867188 C 90.550781 71.179688 90.800781 71.179688 90.957031 71.179688 L 91.769531 71.179688 L 91.769531 74.257812 L 90.957031 74.257812 C 90.800781 74.257812 90.550781 74.257812 90.550781 74.554688 C 90.550781 74.867188 90.800781 74.867188 90.957031 74.867188 L 93.550781 74.867188 C 93.707031 74.867188 93.972656 74.867188 93.972656 74.570312 C 93.972656 74.257812 93.707031 74.257812 93.550781 74.257812 L 92.457031 74.257812 Z M 92.457031 73.007812 "
       style=" stroke:none;fill-rule:nonzero;fill:rgb(0%,0%,0%);fill-opacity:1;" />
    <path
       id="path65"
       d="M 99.03125 74.367188 C 99.03125 74.726562 99.03125 74.867188 99.4375 74.867188 L 100.15625 74.867188 C 100.328125 74.867188 100.578125 74.867188 100.578125 74.554688 C 100.578125 74.257812 100.3125 74.257812 100.171875 74.257812 L 99.71875 74.257812 L 99.71875 69.179688 C 99.71875 68.882812 99.671875 68.773438 99.328125 68.773438 L 98.59375 68.773438 C 98.4375 68.773438 98.1875 68.773438 98.1875 69.085938 C 98.1875 69.382812 98.453125 69.382812 98.59375 69.382812 L 99.03125 69.382812 L 99.03125 70.960938 C 98.703125 70.664062 98.296875 70.507812 97.875 70.507812 C 96.78125 70.507812 95.828125 71.460938 95.828125 72.726562 C 95.828125 73.960938 96.71875 74.929688 97.78125 74.929688 C 98.34375 74.929688 98.765625 74.664062 99.03125 74.367188 Z M 99.03125 72.226562 L 99.03125 72.929688 C 99.03125 73.492188 98.59375 74.320312 97.828125 74.320312 C 97.109375 74.320312 96.515625 73.617188 96.515625 72.726562 C 96.515625 71.773438 97.21875 71.117188 97.90625 71.117188 C 98.546875 71.117188 99.03125 71.679688 99.03125 72.226562 Z M 99.03125 72.226562 "
       style=" stroke:none;fill-rule:nonzero;fill:rgb(0%,0%,0%);fill-opacity:1;" />
    <path
       id="path67"
       d="M 103.667969 72.320312 C 103.433594 72.289062 103.246094 72.257812 102.996094 72.210938 C 102.699219 72.164062 102.027344 72.039062 102.027344 71.664062 C 102.027344 71.398438 102.339844 71.085938 103.292969 71.085938 C 104.121094 71.085938 104.261719 71.382812 104.292969 71.648438 C 104.292969 71.820312 104.324219 71.992188 104.621094 71.992188 C 104.980469 71.992188 104.980469 71.773438 104.980469 71.570312 L 104.980469 70.882812 C 104.980469 70.726562 104.980469 70.476562 104.683594 70.476562 C 104.433594 70.476562 104.402344 70.617188 104.371094 70.695312 C 103.933594 70.476562 103.496094 70.476562 103.308594 70.476562 C 101.652344 70.476562 101.417969 71.304688 101.417969 71.664062 C 101.417969 72.570312 102.464844 72.742188 103.386719 72.882812 C 103.871094 72.960938 104.667969 73.085938 104.667969 73.617188 C 104.667969 73.992188 104.292969 74.320312 103.386719 74.320312 C 102.917969 74.320312 102.371094 74.210938 102.121094 73.429688 C 102.058594 73.257812 102.027344 73.148438 101.761719 73.148438 C 101.417969 73.148438 101.417969 73.351562 101.417969 73.554688 L 101.417969 74.523438 C 101.417969 74.679688 101.417969 74.929688 101.714844 74.929688 C 101.808594 74.929688 101.964844 74.914062 102.089844 74.554688 C 102.574219 74.914062 103.105469 74.929688 103.386719 74.929688 C 104.949219 74.929688 105.277344 74.101562 105.277344 73.617188 C 105.277344 72.585938 103.996094 72.367188 103.667969 72.320312 Z M 103.667969 72.320312 "
       style=" stroke:none;fill-rule:nonzero;fill:rgb(0%,0%,0%);fill-opacity:1;" />
    <path
       id="path69"
       d="M 138.429688 65.457031 L 163.808594 65.457031 L 157.441406 71.824219 L 163.808594 78.1875 L 119.417969 78.1875 L 113.054688 71.824219 L 119.417969 65.457031 Z M 138.429688 65.457031 "
       style="fill:none;stroke-width:0.3985;stroke-linecap:butt;stroke-linejoin:miter;stroke:rgb(0%,0%,0%);stroke-opacity:1;stroke-miterlimit:10;" />
    <path
       id="path71"
       d="M 127.5625 69.070312 C 127.5625 68.914062 127.5625 68.664062 127.265625 68.664062 C 127.078125 68.664062 127.03125 68.773438 126.984375 68.835938 C 126.96875 68.882812 126.96875 68.898438 126.828125 69.148438 C 126.5 68.867188 126.046875 68.664062 125.53125 68.664062 C 124.25 68.664062 123.140625 70.007812 123.140625 71.820312 C 123.140625 73.648438 124.25 74.976562 125.546875 74.976562 C 126.703125 74.976562 127.5625 74.085938 127.5625 73.195312 C 127.5625 72.867188 127.3125 72.867188 127.203125 72.867188 C 127.125 72.867188 126.890625 72.867188 126.875 73.148438 C 126.796875 74.132812 126 74.367188 125.578125 74.367188 C 124.671875 74.367188 123.828125 73.304688 123.828125 71.820312 C 123.828125 70.335938 124.6875 69.273438 125.578125 69.273438 C 126.171875 69.273438 126.71875 69.726562 126.859375 70.539062 C 126.890625 70.710938 126.90625 70.867188 127.203125 70.867188 C 127.5625 70.867188 127.5625 70.664062 127.5625 70.460938 Z M 127.5625 69.070312 "
       style=" stroke:none;fill-rule:nonzero;fill:rgb(0%,0%,0%);fill-opacity:1;" />
    <path
       id="path73"
       d="M 132.621094 72.710938 C 132.621094 71.460938 131.699219 70.476562 130.574219 70.476562 C 129.464844 70.476562 128.527344 71.460938 128.527344 72.710938 C 128.527344 73.976562 129.480469 74.929688 130.574219 74.929688 C 131.667969 74.929688 132.621094 73.976562 132.621094 72.710938 Z M 130.574219 74.320312 C 129.839844 74.320312 129.214844 73.570312 129.214844 72.648438 C 129.214844 71.742188 129.871094 71.085938 130.574219 71.085938 C 131.292969 71.085938 131.933594 71.742188 131.933594 72.648438 C 131.933594 73.570312 131.308594 74.320312 130.574219 74.320312 Z M 130.574219 74.320312 "
       style=" stroke:none;fill-rule:nonzero;fill:rgb(0%,0%,0%);fill-opacity:1;" />
    <path
       id="path75"
       d="M 137.851562 72.710938 C 137.851562 71.460938 136.929688 70.476562 135.804688 70.476562 C 134.695312 70.476562 133.757812 71.460938 133.757812 72.710938 C 133.757812 73.976562 134.710938 74.929688 135.804688 74.929688 C 136.898438 74.929688 137.851562 73.976562 137.851562 72.710938 Z M 135.804688 74.320312 C 135.070312 74.320312 134.445312 73.570312 134.445312 72.648438 C 134.445312 71.742188 135.101562 71.085938 135.804688 71.085938 C 136.523438 71.085938 137.164062 71.742188 137.164062 72.648438 C 137.164062 73.570312 136.539062 74.320312 135.804688 74.320312 Z M 135.804688 74.320312 "
       style=" stroke:none;fill-rule:nonzero;fill:rgb(0%,0%,0%);fill-opacity:1;" />
    <path
       id="path77"
       d="M 140.644531 73.007812 C 140.644531 72.070312 141.222656 71.117188 142.425781 71.117188 C 142.441406 71.351562 142.613281 71.554688 142.863281 71.554688 C 143.082031 71.554688 143.285156 71.398438 143.285156 71.132812 C 143.285156 70.929688 143.160156 70.507812 142.332031 70.507812 C 141.832031 70.507812 141.191406 70.695312 140.644531 71.320312 L 140.644531 70.976562 C 140.644531 70.664062 140.582031 70.570312 140.238281 70.570312 L 139.144531 70.570312 C 138.988281 70.570312 138.738281 70.570312 138.738281 70.867188 C 138.738281 71.179688 138.988281 71.179688 139.144531 71.179688 L 139.957031 71.179688 L 139.957031 74.257812 L 139.144531 74.257812 C 138.988281 74.257812 138.738281 74.257812 138.738281 74.554688 C 138.738281 74.867188 138.988281 74.867188 139.144531 74.867188 L 141.738281 74.867188 C 141.894531 74.867188 142.160156 74.867188 142.160156 74.570312 C 142.160156 74.257812 141.894531 74.257812 141.738281 74.257812 L 140.644531 74.257812 Z M 140.644531 73.007812 "
       style=" stroke:none;fill-rule:nonzero;fill:rgb(0%,0%,0%);fill-opacity:1;" />
    <path
       id="path79"
       d="M 147.21875 74.367188 C 147.21875 74.726562 147.21875 74.867188 147.625 74.867188 L 148.34375 74.867188 C 148.515625 74.867188 148.765625 74.867188 148.765625 74.554688 C 148.765625 74.257812 148.5 74.257812 148.359375 74.257812 L 147.90625 74.257812 L 147.90625 69.179688 C 147.90625 68.882812 147.859375 68.773438 147.515625 68.773438 L 146.78125 68.773438 C 146.625 68.773438 146.375 68.773438 146.375 69.085938 C 146.375 69.382812 146.640625 69.382812 146.78125 69.382812 L 147.21875 69.382812 L 147.21875 70.960938 C 146.890625 70.664062 146.484375 70.507812 146.0625 70.507812 C 144.96875 70.507812 144.015625 71.460938 144.015625 72.726562 C 144.015625 73.960938 144.90625 74.929688 145.96875 74.929688 C 146.53125 74.929688 146.953125 74.664062 147.21875 74.367188 Z M 147.21875 72.226562 L 147.21875 72.929688 C 147.21875 73.492188 146.78125 74.320312 146.015625 74.320312 C 145.296875 74.320312 144.703125 73.617188 144.703125 72.726562 C 144.703125 71.773438 145.40625 71.117188 146.09375 71.117188 C 146.734375 71.117188 147.21875 71.679688 147.21875 72.226562 Z M 147.21875 72.226562 "
       style=" stroke:none;fill-rule:nonzero;fill:rgb(0%,0%,0%);fill-opacity:1;" />
    <path
       id="path81"
       d="M 151.855469 72.320312 C 151.621094 72.289062 151.433594 72.257812 151.183594 72.210938 C 150.886719 72.164062 150.214844 72.039062 150.214844 71.664062 C 150.214844 71.398438 150.527344 71.085938 151.480469 71.085938 C 152.308594 71.085938 152.449219 71.382812 152.480469 71.648438 C 152.480469 71.820312 152.511719 71.992188 152.808594 71.992188 C 153.167969 71.992188 153.167969 71.773438 153.167969 71.570312 L 153.167969 70.882812 C 153.167969 70.726562 153.167969 70.476562 152.871094 70.476562 C 152.621094 70.476562 152.589844 70.617188 152.558594 70.695312 C 152.121094 70.476562 151.683594 70.476562 151.496094 70.476562 C 149.839844 70.476562 149.605469 71.304688 149.605469 71.664062 C 149.605469 72.570312 150.652344 72.742188 151.574219 72.882812 C 152.058594 72.960938 152.855469 73.085938 152.855469 73.617188 C 152.855469 73.992188 152.480469 74.320312 151.574219 74.320312 C 151.105469 74.320312 150.558594 74.210938 150.308594 73.429688 C 150.246094 73.257812 150.214844 73.148438 149.949219 73.148438 C 149.605469 73.148438 149.605469 73.351562 149.605469 73.554688 L 149.605469 74.523438 C 149.605469 74.679688 149.605469 74.929688 149.902344 74.929688 C 149.996094 74.929688 150.152344 74.914062 150.277344 74.554688 C 150.761719 74.914062 151.292969 74.929688 151.574219 74.929688 C 153.136719 74.929688 153.464844 74.101562 153.464844 73.617188 C 153.464844 72.585938 152.183594 72.367188 151.855469 72.320312 Z M 151.855469 72.320312 "
       style=" stroke:none;fill-rule:nonzero;fill:rgb(0%,0%,0%);fill-opacity:1;" />
    <path
       id="path83"
       d="M 168.839844 71.539062 C 168.839844 70.476562 167.949219 69.617188 166.917969 69.617188 C 165.839844 69.617188 164.964844 70.507812 164.964844 71.539062 C 164.964844 72.601562 165.839844 73.476562 166.917969 73.476562 C 167.949219 73.476562 168.839844 72.617188 168.839844 71.539062 Z M 168.839844 71.539062 "
       style=" stroke:none;fill-rule:nonzero;fill:rgb(0%,0%,0%);fill-opacity:1;" />
    <path
       id="path85"
       d="M 174.378906 71.539062 C 174.378906 70.476562 173.488281 69.617188 172.457031 69.617188 C 171.378906 69.617188 170.503906 70.507812 170.503906 71.539062 C 170.503906 72.601562 171.378906 73.476562 172.457031 73.476562 C 173.488281 73.476562 174.378906 72.617188 174.378906 71.539062 Z M 174.378906 71.539062 "
       style=" stroke:none;fill-rule:nonzero;fill:rgb(0%,0%,0%);fill-opacity:1;" />
    <path
       id="path87"
       d="M 179.90625 71.539062 C 179.90625 70.476562 179.015625 69.617188 177.984375 69.617188 C 176.90625 69.617188 176.03125 70.507812 176.03125 71.539062 C 176.03125 72.601562 176.90625 73.476562 177.984375 73.476562 C 179.015625 73.476562 179.90625 72.617188 179.90625 71.539062 Z M 179.90625 71.539062 "
       style=" stroke:none;fill-rule:nonzero;fill:rgb(0%,0%,0%);fill-opacity:1;" />
  </g>
</svg>
